<svg xmlns="http://www.w3.org/2000/svg" xmlns:xlink="http://www.w3.org/1999/xlink" viewBox="0 0 433.29 419.27"><defs><style>.cls-1{fill:url(#Dégradé_sans_nom_98);}.cls-2{fill:#21292a;}.cls-3{fill:#76c7cf;}.cls-4{fill:#5fc0c5;}.cls-5{fill:#0e7054;}.cls-6{fill:#13806f;}.cls-7{fill:#f296aa;}.cls-8{fill:#f299aa;}.cls-9{fill:#f0a5b9;}.cls-10{fill:#fff;}</style><radialGradient id="Dégradé_sans_nom_98" cx="164.33" cy="190.87" r="239.12" gradientUnits="userSpaceOnUse"><stop offset="0.01" stop-color="#8cc68d"/><stop offset="0.35" stop-color="#4bb380"/><stop offset="0.46" stop-color="#46ad7d"/><stop offset="0.6" stop-color="#3a9d75"/><stop offset="0.76" stop-color="#258268"/><stop offset="0.94" stop-color="#075d57"/><stop offset="0.97" stop-color="#005352"/></radialGradient></defs><g id="Logo_couleurs" data-name="Logo couleurs"><path id="Fond" class="cls-1" d="M225.78,404.75c-7.29.42-13.86.56-21,.42.16-.47.25-.72.35-1C208.62,404.76,225.2,402.65,225.78,404.75ZM102.43,369.89a54.32,54.32,0,0,0,4.52,3.39c1.55,1,3.14,2,4.8,3.08C114,377.1,104.79,369.94,102.43,369.89Zm97.63,32.75c-5.91-.2-13.55-1.72-18.89-1.73,6.15,2.89,13.67,2.54,20.39,3.1C200.93,403.54,200.69,403.11,200.06,402.64ZM99.23,379.19c3.44,4.08,7.24,7.58,13.7,8.53l-3.52-2C106.29,383.73,102.25,381.32,99.23,379.19ZM272.32,406c5.83-1.7,11.31-3.56,16.92-5.59l-.05-.81C283.62,401.91,278.16,404.08,272.32,406ZM340.14,70.31a12.6,12.6,0,0,1,2.76.56c4.59,4.26,7.87,6.72,4.34,1.45-3.84-4.15-9-8-13.55-11.6-2.73-2.63-6.51-4.19-10.09-5.19,1.75,1.21,3.45,2.65,5.18,4C334.43,63.68,333,64.28,340.14,70.31Zm6.34,267.06C409.3,276,413.43,159.48,354.67,93.75l.17-.07h0c-.54-1-1-1.88-1.39-2.68v0a13.52,13.52,0,0,0,1,2.85c.17.36.35.71.54,1.06h0c.41.78.87,1.55,1.32,2.31.27.45.53.91.81,1.36-.23.47-.13,1.2-.31,1.65a88.43,88.43,0,0,1,4.84,7.74.93.93,0,0,1,.05.1c1.51,2.71,2.76,5.27,4,7.76.61,1.25,1.2,2.49,1.8,3.71l.1.19h0c.33.64.62,1.24.9,1.79l.28.55.27.52c.81,1.52,1.67,3,2.63,4.6l0,0,.13.21c.17.28.35.56.54.85s.42.65.65,1l.68,1,.41.58,1.05,1.42c.22.54.43,1.06.61,1.55q.19.48.36.93c.17.45.33.87.49,1.27.27.69.51,1.3.74,1.84l.28.62c.05.1.09.2.15.3a2.44,2.44,0,0,0,.14.28l.27.53c.19.35.38.67.56.95s.23.35.35.51l.57.74a3,3,0,0,0,.23.27,17.61,17.61,0,0,1,4.14,6.36c.14.34.27.69.4,1s.25.68.37,1c0,0,0,0,0,.07a51.43,51.43,0,0,1,1.66,6.43c.82,4.13,1.31,8.33,2.1,12.45a.59.59,0,0,0,0,.13,55.21,55.21,0,0,0,1.58,6.36,1.87,1.87,0,0,0,.07.22c.17.53.36,1,.55,1.56-.18,2.13,1.11,9.76-.43,6.7.12,1.13.21,2.23.31,3.31.14,1.52.28,3,.39,4.53l0,.36c.06.76.11,1.52.16,2.3.55.47,1.06-1.23,1.65,2.15a9.25,9.25,0,0,1,.05,1.28c0,.13,0,.25,0,.38s0,.15,0,.22,0,.22,0,.33a2.52,2.52,0,0,1,0,.37c0,.12,0,.26-.06.4,0,.29-.1.61-.16,1-.11.71-.3,1.6-.58,2.71,1.19,6.83.26,17.7-.61,26.48a12.62,12.62,0,0,1,.71,4.37c.06,4.3-1.15,9.9-2.5,15.34,0,.06,0,.13,0,.19-1.26,5-2.64,9.93-3.26,13.53l-.09.47A12.05,12.05,0,0,0,386,268c-1.43,3.32-2.8,6.91-4,10.61-1.38,3.41-2.9,6.75-4.51,10-2.31,4.73-4.81,9.36-7.33,14-2.1,3.86-4.21,7.7-6.23,11.55a54,54,0,0,1-5.51,8.75l-.16.23h0c-2.4,3.15-5,6.12-7.61,9.14h0C349.24,334,347.83,335.65,346.48,337.37Zm-257,21.92c2.27,2.12,4.75,4.14,7.15,6,.49-.34,1-.72,1.49-1.07-2.44-1.94-5-3.8-7.32-5.82ZM47.11,324.24c5.43,11.29,14.4,19.84,22.9,29,5.82,5.35,10.37,13.93,18.58,15.29-2.53-2-4.91-4.24-7.29-6.44A310.88,310.88,0,0,1,47.11,324.24Zm7.47,3.7c-3-4.39-6.09-8.89-10-12.63-1.72-2.77-3.43-5.51-5.14-8.31-4.67-5-8.76-14-11.1-20.73-2.1-6.81-6.21-12.71-6-20.18C26.9,276.62,28,284.25,34.46,295c-.54-1.85-.92-3.74-1.36-5.62,2.87,3.37,5.54,8.33,7.66,10,1.91,4.69,4.71,8.75,7.54,13.37,2.5,4.41,5.36,8.7,8.19,12.92,1.93,2.32,3.76,5,3.42,8C58.26,331.89,56.3,329.76,54.58,327.94ZM43,310.2c-.45-.9-.86-1.69-1.23-2.39C42.09,308.58,42.48,309.38,43,310.2Zm332.39,16.89c-7.15,8-8.86,11.06-9.42,12.41C369.31,335.39,372.27,331.44,375.34,327.09ZM331.47,362c-4.16,5.7,10.42-7,11.15-7.77-1.71.78-3.5,1.44-5.21,2.16C335.47,358,333.07,360.3,331.47,362Zm20.37-17c2-.83,8.4-6.61,7.58-8.64C357,339.41,353.85,341.49,351.84,345Zm-90,45.59a193.56,193.56,0,0,0,27.66-8.47c-4.45,3.78-9.74,5.84-15.36,7.66-1.86,0-4.78.42-3.7-.9a33.39,33.39,0,0,0-10.3,4c-5.42,1.46-10.83,2.11-16.29,3.25-12.66,2.36-25.7,2-38.5,2.89-14.94.34-29.39-3.12-43.67-7.3l-.4.65c-13.68-2.08-29.09-8.74-40.44-16.07-1.5-.86-2.48-1.34-3.74-2.17-4.14-2.22-3-.77-5.88-2.2-16.53-10.61-26.17-22.69-40.51-33.35-1.17-1.05-4.19-3.86-5.43-4.95-8.85-9.49-15.44-21.18-20.55-33a95,95,0,0,1-11.11-20.32,22.39,22.39,0,0,0-1.57-8.87c-1.91-2.94-1,.39-1.56,0-5.16-8.17-1.09-17-6.56-23.48C21,232.72,21.27,216.8,22,201.69c-.19-3.65-.47-2.47-.82-.55s-.56,4.59-1,3.83c-.26-1.38-.61-7.23-1.07-4.36-.59,5.2.75,6.83-.06,11.5l-1.77-.53c-.34-1.7-.57-3-.9-4.35-.19,9.46-.15,19-.33,28.42l-2.35-.45c1.7,11.62,3.55,23,6.16,34.7h-.28c-3.48-3.07-5.13-10.61-5.27-15.65.38,0,.49.05.55.06-1.06-8.46-2.52-20.5-3.65-27.94a245.36,245.36,0,0,1,.47-34.76,215.39,215.39,0,0,1,3.24-21.34c.88-5.38,1.58-5,2.59-7.07.51-1.51.89-2.67,1.31-3.8,2.17-12,6.75-21,11.42-31.75a142.07,142.07,0,0,1,14.37-25.5c10-15.43,21.15-28.69,35.52-40.64C89,53.89,98.56,46.7,108,39.82c23.25-12.4,48.51-21.1,74.72-24.25,14.74-2.78,28.41-1.75,44.09-.7,4.73.59,12.61.63,16.09,2.57a15.37,15.37,0,0,0,3.49,2.22,46,46,0,0,1,14.65,4c1.88,1.26-.46.72-3.36.08s-6.36-1.32-6.59-.89c-9.78-1.44-26.74-5.91-35.69-2.82-8.88-.65-9.17.65-18.92,1.78-2.74.52-6.68,1.57-9.43,2.23.34.22,1.05.4,1.4.62,1.31,0,18-2.34,14.59-.26,1.93.26-12.16,1.47-15.11,3.3-.45.63-1.27,1.3-1.76,2l3.21.36a2,2,0,0,1-.36.19c5.44-.91,10.9-.55,16.05-.66,1.4-.7-1.15-1.54,1.63-2.18,3.49-.81,7.95,0,11.59.2-4.94,2.92-12.88,1.9-18.7,3.74-6.21,1.91-13,2-19.37,3.11-3.82,2.42-12.66,2.7-17.85,5.55,73-22,149,8.6,191.84,65.24a173.15,173.15,0,0,1,29.46,60.09q1.41,5.3,2.46,10.73h0a167.39,167.39,0,0,1,3.09,34.91,204.4,204.4,0,0,1-7.2,51.57c0-.14.07-.29.11-.43,0,.14-.07.29-.11.44l-.27,1a2.86,2.86,0,0,1-.07.28c-.45,1.56-.91,3.09-1.39,4.62a25.44,25.44,0,0,0-1.6,3v0c-.54,1.17-1.1,2.53-1.62,4s-1,2.73-1.49,4c0,0,0,0,0,.06-.08.22-.16.43-.23.64-.54,1.51-1,2.92-1.26,4a56.37,56.37,0,0,1-4.18,7.55l0,0h0c-1.14,1.65-2,2.46-2.45,2.27-1.28,2.26-2.4,4.62-3.6,6.95s-2.46,4.64-3.68,7c-1,1.64-1.94,3.27-3,4.88l0,.06c-.35.6-.72,1.19-1.1,1.78a62.63,62.63,0,0,1-4.75,6.19l-.21.19h0c-.58.51-1.14,1-1.75,1.49l-2.06,1.62c1.91-2.79,4-5.14,5.27-6.9,1.38-2.48,1-2.73-.36-1.55a26.85,26.85,0,0,0-2.56,2.72c-.5.6-1,1.27-1.58,2s-1.18,1.43-1.79,2.22c-.4,1.25-.8,2.5-1.25,3.73a36.13,36.13,0,0,1-4.62,4.85,18.34,18.34,0,0,1-2.84,2.09c-1.47.86-2.41.95-4.19,2.33-1,.77-1.95,1.55-2.86,2.34s-1.76,1.62-2.65,2.35c-1.76,1.52-3.38,3.07-4.91,4.59s-3.09,2.87-4.53,4.23a44.29,44.29,0,0,1-4.32,3.68,5.13,5.13,0,0,0-2.84.79l-2.15,1.05a25.92,25.92,0,0,1-2.62,1.17,32.94,32.94,0,0,0-5.05,2.37l-1.61.89L298,360l-3.74,1.95a100.6,100.6,0,0,1-15.12,6.52,29.36,29.36,0,0,1-6.5,3.36,29.87,29.87,0,0,1-5.47,1.51c-1.85.36-3.78.75-6.13,1.39a80.5,80.5,0,0,0-8.73,2.59c-1.87.34-4.59.77-6.49.93s-3-.08-1.57-.74c1.9-.62,3.09-1.37,4.83-2.06a29.41,29.41,0,0,1,3.16-1.07c1.28-.39,2.82-.86,4.81-1.32-1.32-.49.76-1.19,3.5-2s6.13-2,7.55-2.86c1.24-.91,2.78-1.93,4.33-2.94,2.53-1.13,4.91-2.56,7.36-3.8,1.49-1.15,5.21-3.52,7.73-5.28a7.53,7.53,0,0,0,2.34-2.2c.18-.48-.38-.61-2.07-.21l-5,2.45c-.85.41-1.69.84-2.54,1.23l-2.53,1.07c-1.42,1.28-2.54,2.4-4,3.62a39.52,39.52,0,0,1-2.91,3.18l-3.88,1.15c-1.53.36-3.3.76-5.39,1.21l-1.27.4,0,1.29a177.87,177.87,0,0,1-22.83,6.11l-10.06,1.94a64.24,64.24,0,0,0-7.63,1.77l-6.78.1c-2.26,0-4.48-.08-6.58-.07s-4.07-.07-5.83,0a35,35,0,0,0-4.5.28c-2.33.44-8.54,0-13.63-.7-2.57-.22-4.84-.58-6.28-.55s-2,.36-1.16,1.24c-4.5-1.26-5.46-1.34-5.61-.91s.59,1.2-.41,1.21c2.08.55,3.26.81,4,1.07a2.27,2.27,0,0,1,1.07.66c.37.4.65.79,4.53,1.59.36.28.4.45.2.55A193.16,193.16,0,0,1,158.27,379h0q-5.87-1.67-11.63-3.71A170.87,170.87,0,0,1,84.35,337l-.13-.18c-.65-.9-1.39-1.87-2.14-2.84l-2.19-2.87c-.41-.55-.77-1.1-1.08-1.61l-.6-1c-.87-1.52-1.17-2.5-.33-2.41a43.76,43.76,0,0,1,3.32,3.49c1.3,1.36,2.68,2.87,4,4.25L87,335.78c.59.59,1.17,1.07,1.66,1.48,1,.8,1.71,1.21,2,1,.79.84,1.61,1.67,2.43,2.49l1.25,1.2,1.31,1.1c1.74,1.45,3.47,2.77,5,3.9,3.24,2.16,6,3.45,7.08,3.46-1.52-1.22-3-2.47-4.47-3.73s-2.83-2.65-4.27-4c-2.92-2.59-5.68-5.44-8.93-8.08-1.8-2.14-3.5-4.36-5.2-6.53-1.29-1.23-2.25-2.3-3.51-3.6l-2.45-2.52c-.82-.83-1.63-1.67-2.37-2.55l-4.52-5.06c-.84-1.14-1.41-2-2-2.91L69,310l-1.94-2.65c-.66-.89-1.24-1.86-1.87-2.8-1.22-1.9-2.52-3.78-3.68-5.7l-3.29-5.63c-.55-.89-1-1.8-1.47-2.67s-.9-1.7-1.32-2.5a16.38,16.38,0,0,1-2.6-4.21,25.63,25.63,0,0,0-2.92-5c-.26.55,1.24,4.2,2.21,6.91s1.51,4.45-1.31,1.39c-.34-.52-.68-1.09-1-1.71l0-.06,0,0c-1-1.83-2-4-3-6.32-.68-1.55-1.24-3.19-1.85-4.78s-1.18-3.15-1.67-4.62a1.81,1.81,0,0,1-.57-.55,199.82,199.82,0,0,1-9-53.83s0,0,0,0c0-1.39-.09-2.78-.11-4.19a178.27,178.27,0,0,1,1-18.44v0a174.85,174.85,0,0,1,4-23.49,173,173,0,0,1,8.77-26.72q3.19-7.66,7.09-14.94c1.33-2.5,2.74-4.94,4.19-7.36l.33-.55c.68-1.13,1.35-2.27,2.06-3.39a1.74,1.74,0,0,1,.11-.18Q63,112.89,65,110h0c.21-.32.43-.63.65-.94.06-.07.11-.15.17-.23h0a178.49,178.49,0,0,1,74.66-60.95C117.83,56.11,99,71.64,81.92,88.44c-3.63,3.23-9.16,11.34-13.73,14.94,0,0,0,0,0,0a12.53,12.53,0,0,1-1.34.93h0c-.13,0-.51.37-1,1.09l0,0c-.19.25-.4.55-.63.87-1.34,1.92-3.22,4.84-4.74,7-.26.36-.5.71-.73,1l-.32.43c-1.06,1.38-1.74,2-1.57.83a12.17,12.17,0,0,1,.75-1.93l.3-.57a19.09,19.09,0,0,1,1-1.72l.18-.29c.32-.52.67-1.06,1.07-1.59L62.17,108c.6-.82,1.2-1.62,1.73-2.4,1.23-1.73,2.24-3.52,3.25-5.27a56.15,56.15,0,0,1,3-4.79l0,0h0a22,22,0,0,1,3.53-4h0a.6.6,0,0,0,.08-.08l1.33-1.51.39-.44c.81-.89,1.7-1.86,2.53-2.73l.41-.43.11-.11,1-1,.31-.31a23.54,23.54,0,0,1,3.48-1.08l3-2.91.17-.16,0,0,0,0c1.11-1.09,2.23-2.19,3.35-3.27l0,0,0,0,.12-.13c1.12-1.08,2.24-2.16,3.37-3.22l.1-.1.88-.82L93.4,74c.74-.7,1.49-1.4,2.25-2.08l-.5.46.5-.45,0,0c1.54-1.41,3.1-2.79,4.69-4.11.39-.34.79-.67,1.19-1,1.25-.93,2.52-1.81,3.81-2.66l.07,0-.07,0A149.55,149.55,0,0,1,120,55.77l0,0h0c4.51-2.3,9.06-4.52,13.52-6.88l.12-.06.16-.09-.16.08c3.38-1.81,6.71-3.7,9.92-5.78l0,0h0l0,0c.89-.58,1.77-1.17,2.64-1.78a.76.76,0,0,1,0-.14V41h0l-.3.09a82.43,82.43,0,0,0-8.51,3l-.51.2c-3.83,1.54-7.61,3.3-11.34,5.12-4,1.94-7.9,3.92-11.77,5.76l-.86.4q-.48.21-1,.45a6,6,0,0,0-.77.37,40.54,40.54,0,0,0-4.38,2.48l-.08,0c-2.41,1.52-4.74,3.25-7,5l-.09.08c-1.48,1.14-3,2.31-4.41,3.46l-.23.17c-1.3,1-2.6,2-3.91,3A89.08,89.08,0,0,0,80.5,80.29c-4,4.22-7.66,8.76-11.23,13.36h0c-2.65,3.4-5.23,6.83-7.83,10.2.27-.83-.67.32-1.42,1.12q-.39.54-.72,1c-.33.5-.63,1-.89,1.42l0,0,0,0c-.5.89-.93,1.75-1.33,2.61v0c-.11.25-.22.5-.34.75-.41.9-.81,1.81-1.26,2.76l-.45.91-.62,1.19-.71,1.25q-2.91,4.72-5.52,9.76v0A174,174,0,0,0,40.3,144l0,0,0,.05c-1.8,4.61-3.42,9.29-4.84,14,0,.05,0,.09,0,.14l0,0,0-.05-.18.62,0-.11,0,.12c-.84,2.81-1.61,5.64-2.29,8.45-.07.25-.13.49-.19.74-.19.67-.39,1.64-.6,2.68,0,.15-.07.3-.1.45l-.12.53,0,0,0-.06a17,17,0,0,1-1.16,3.8v0a2.37,2.37,0,0,1-.66.84c-.34,0-.61-.58-1.2,1.57A42.05,42.05,0,0,0,28,182.7s0,.08,0,.12a.17.17,0,0,0,0,.07.25.25,0,0,1,0-.08c-.4,3-.68,6.22-1.27,9.09a2.23,2.23,0,0,1,0-.23,2,2,0,0,0,0,.24l-.09.45c0,.09,0,.18,0,.26a22.33,22.33,0,0,1-.86,3,86.14,86.14,0,0,0-.82,11.64v0c0,4.25.22,8.44.56,12.67v-.07a.22.22,0,0,0,0,.08c.23,2.84.5,5.7.77,8.6.16,1.71.35,3.42.58,5.13,0,0,0,.06,0,.09s0-.07,0-.1c.45,3.44,1,6.89,1.75,10.32h0v0c.6,3,1.29,6,2.05,9v0c1.13,4.47,2.39,8.9,3.72,13.26l-.06-.17.06.18h0q.55,3,1.4,6.16s0,0,0,0l0,.05c.65,2.46,1.42,5,2.28,7.45v0c.42,1.23.86,2.46,1.32,3.68,0-.06-.05-.11-.07-.17a1.34,1.34,0,0,0,.07.18c0,.14.1.27.16.41.32.87.65,1.73,1,2.59,0,.1.08.2.11.3s.07.18.11.27c0-.09-.07-.18-.11-.28,1.87,4.68,3.93,9.24,6,13.44l-.12-.24.12.25a49.09,49.09,0,0,0,3,4.36,1,1,0,0,0,.09.13l.08.1a1,1,0,0,1-.08-.11c1.31,1.75,2.7,3.47,4,5.15l-.32-.39.32.4.64.81v0c.85,1.11,1.67,2.21,2.4,3.3.53.84.68,1.44.32,1.74l.06.08-.06-.09c2.28,3.16,4.61,6.37,7,9.56l-.07-.08.07.09a182.15,182.15,0,0,0,18.39,21.41l.1.1.12.11-.12-.12A101.06,101.06,0,0,0,90.8,354l-.15-.11.15.12L92,355l1.51,1.13a3.15,3.15,0,0,0,.29.22L98.63,360l.44.34.13.09-.13-.1c2.21,1.66,4.43,3.3,6.69,4.86l-.2-.13.2.14.34.24,2.54,1.71.1.07,1.18.75q1.71,1.09,3.45,2.1a35.45,35.45,0,0,0,4.14,2.12h0l.09,0-.09-.05a40.83,40.83,0,0,1,6.88,3.6l-.08,0,.08.05h0a9.78,9.78,0,0,1,1.83,1.73l3.07,1.54c1.07-.08,2.93.75,4.73,1.56l.4.17c.39.17.74.32,1.06.44l.31.12.38.15.15,0-.15-.06c.81.3,1.42.48,2,.64h0l0,0h0c.59.17,1.16.33,1.88.58l.16.06.21.08-.21-.09c.71.26,1.58.6,2.73,1.12l-.25-.1.25.11c1.51.72,2.95,1.39,4.37,2h.06l0,0c1.77.78,3.5,1.48,5.27,2.11l-.08,0,.08,0c1.7.61,3.45,1.15,5.32,1.64h.08l-.08,0c2.3.55,4.61,1.09,6.93,1.6h0c3.09.69,6.2,1.34,9.31,1.94h0l0,0a210.21,210.21,0,0,0,20.87,3l-.21,0,.21,0h0c3.94.36,7.88.58,11.84.61.86,0,1.71,0,2.56,0,.42-.54,4.16-.72,8.6-.66l1.64,0,.87,0c.56,0,1.13,0,1.69.06h0c1.7.07,3.39.16,4.94.28h0c.78.06,1.51.12,2.2.19l.11,0h0q5.28-.89,10.6-1.83h0c5.78-1,11.57-2.13,17.32-3.4h0c1.4-.3,2.8-.61,4.2-.95l-.1,0,.1,0Zm-69.77-359c.91-.12,1.82-.19,2.73-.22-.72,0-1.42.05-2.09.09Zm-2,.36,2-.35A19.37,19.37,0,0,0,190.07,31.91Zm-4.82.79.48,0,.47-.1A6.16,6.16,0,0,1,185.25,32.7Zm-1.3-.12a6.49,6.49,0,0,0,1.26.12C184.76,32.67,184.34,32.62,184,32.58Zm-7.45-.84q1.44-.36,2.91-.66l-1.38.28ZM163.87,95.31l.06.07s0-.06,0-.09ZM151.33,37.75l.14-.07-.08,0Zm-.5.31,0,0h0Zm-.58.49.18-.17-.08.06A.36.36,0,0,0,150.25,38.55ZM142,29.36l1.84-.71-1,.36Zm-10.39,4.31c1-.39,2.07-.77,3.12-1.15l2.69-1.24Zm-11.28,5.06c3.66-1.86,7.4-3.45,11.21-5A108.51,108.51,0,0,0,120.34,38.73Zm-9.69,5.88a86.42,86.42,0,0,1,8.43-5.21A66.84,66.84,0,0,0,110.65,44.61Zm-14.08,10c.58-.48,1.2-1,1.84-1.47A21.15,21.15,0,0,0,96.57,54.6Zm-1.93,1.68c.58-.48,1.14-1,1.74-1.52C95.76,55.28,95.17,55.78,94.64,56.28Zm-1.37,1,.68-.37c.19-.19.4-.38.61-.57A15.83,15.83,0,0,1,93.27,57.29Zm-5.11,3.45c.57-.46,1.16-.9,1.74-1.34l-.23.15C89.16,59.94,88.66,60.33,88.16,60.74ZM54.06,96.63c-.67.85-1.32,1.73-1.93,2.63C52.75,98.38,53.4,97.5,54.06,96.63ZM62,87.5l-3.05,3.4c-1.58,1.7-3.18,3.57-4.69,5.52,1.5-1.92,3.09-3.74,4.69-5.52.29-.32.58-.64.88-1ZM51.83,96.82c2.5-3.35,5.24-6.64,7.7-9.89,1-1.32,2-2.53,2.94-3.72C59,87.6,55.2,92.18,51.83,96.82ZM39.14,120.36c1.09-2.07,2.23-4.11,3.4-6.15C41.36,116.24,40.22,118.29,39.14,120.36ZM28.27,136.6c2-4.19,3.91-8.18,6.18-12.18A79.64,79.64,0,0,0,28.27,136.6Zm134-43.11.08,0s0,.06,0,.09ZM303.37,378.41c4.4-2.56.47-1.57,6.09-5.13,2.61-1.62,5.27-3.2,7.85-4.88a.17.17,0,0,0,0-.07,189,189,0,0,1-24.65,12.45A49,49,0,0,0,303.37,378.41Zm5.81,12.14c4.35-2.41,7.53-3,10.34-6.46-3.49,2.24-6.82,4-10.44,6Zm-19.64-8.49c1-.42,2.09-.84,3.13-1.28-.5.06-1,.11-1.56.15Zm115.1-105.17c-3.29,8.9-4.77,18-9.3,26.44-7,12.94-15.76,25.18-24.92,36.68l-.44-.69c6-11.37,16.29-19.56,20.83-31.5-2.85,4.08-6,8.26-9.1,12.24l-.66-.81c-1.53,2.32-4.06,5.57-5.71,7.84-.28-5.41,3.83-9.63,6.53-14.07,3.8-5.34,6.13-11.48,9.1-17.16l-2.28,4.23c-.31-.31-.62-.62-.93-.91,3.44-6.21,4.12-11.75,7.46-17.85-.35,0-.09-1.64-.16-2.71a184,184,0,0,0,8-23.23,6.88,6.88,0,0,1,.76-2.82c6.5-26.57,8.88-57.17,1.79-84.14-1.17,3.74-4.4-10.23-5.09-11.42a7.25,7.25,0,0,0,.3-1.91c-2-6.35-3.81-13.17-7.17-18.92-3-5.26-3.9-10-6.69-14.83l-1.28.22c-.91-2.41-3.49-4.08-5.37-6.25-1.11-2.09-2.54-4.43-3.8-6.45-2-2.26-5.56-7.19-5.74-9.69-2.69-4.23-5.82-7.87-8.33-12.24,1,.78,2,1.63,3,2.5a28.17,28.17,0,0,0-6.55-10.93c-3.38-5.28-2.47-4.46-1.77-5.52,3.32,2.33,8.56,10.17,11.41,11.54C388.36,109.41,403,139,409.38,170.19c0-.46-.05-.92-.07-1.37A203.34,203.34,0,0,1,414,210c-.18-.34-.35-.66-.53-1,.9,2.4.57,5.23.61,7.84.05,1.71,0,5.15-.08,6.86C415.16,241.46,410.13,260.16,404.64,276.89ZM403,256.7l-.24,1.95A12.52,12.52,0,0,0,403,256.7Zm8-46.28c0-.62,0-1.24,0-1.86,0,1.37,0,2.74-.07,4.11C410.92,211.92,411,211.17,411,210.42ZM394.1,278c3.83-9.44,4.63-15.2,2.89-13.2-.43,1.51-1.08,3.37-3.08,8.81.64-4.95,4.88-18,6.06-25.29,2.2-12.34,1.56-25.24,1.3-38.72.67-1,1.32-1.92,2-2.88.21,2.39.38,5.15.43,7.54.74.23,1.32.43,2,.66.13-3.32.11-6.5,0-9.44-.43-.91-1,1.28-1.29-2.31.1-3.62-.1-7.49-.21-11.22-.52-.5-1.15-1.37-1.67-1.85-.53-5.74-1.25-11.21-2.27-16.92l-.49-.06a215.66,215.66,0,0,0-8.37-27c-.68-.33-1.49-1-2.11-1.37.7,3,1.09,5.6,1.65,8.75l-1.29,0c3.5,13.21,7.59,26.72,6.5,40.48,2.12,5.76,1,10.81,1.66,16.41,1.93-3.5-.16,22.12-1.16,23.92a35.39,35.39,0,0,0,.31,7.78c-.35,3.1-.81,6.16-1.38,9.22,2.08-2.18-1.73,11.6-2.25,13.24-1.36,5.11-1.85,9.16-4.32,14.15-1.17,3.77,1.15.42-.24,4.06a14.22,14.22,0,0,1-4.12,6.23c-1.43,3.27-2.28,5.24-4.23,10.2a4.8,4.8,0,0,1-2.05.57C372.23,310.45,366,321.28,358,330.69c-.65-2.37-7.84,10.4-9.51,8.34l-2.37,2.47c.43,1.57,2.95-.68,2.45,1.41-2.46,2.51-5.32,4.95-7.9,7.27-.2-.45-.45-.93-.69-1.42-2.68,2.25-4.22,2.73-5.16,4.79-.25.81-.07,1.44-2.72,3.69-4.69,3.41-8.62,5.48-13.64,8.82-2.63,2.12-1.14,1.74-1.18,2.27a191.35,191.35,0,0,0,57.36-53.08c3.05-1,7.14-9.27,8.85-12.79-.21.14-.28-.06-.34-.26a187.72,187.72,0,0,0,11.87-23.58C395,277.86,394.82,277.39,394.1,278Zm4.08-126.37H396.6c1.47,4.11,2.47,9.46,4.06,12.54C400.19,160,399.73,155.68,398.18,151.67Zm-46.76-68c3.11,3.38,6.38,6.3,9.16,9.67a11.48,11.48,0,0,1,2.84.89,56.18,56.18,0,0,0-12.71-13.89C350.42,80.86,345.72,77.06,351.42,83.66ZM36.35,264.88c-.5.68.54,6.56,2.82,8.08h0c.2-.54-.87-4.47-1.78-6.69C36.86,265,36.52,264.64,36.35,264.88ZM249.67,162.17c0,.09-.08.18-.11.27l0-.05ZM125.4,85.34l.07-.06-.09,0A.31.31,0,0,1,125.4,85.34Z"/><g id="éco"><g id="Eco_ombres" data-name="Eco ombres"><path id="C_corps_Ombre" data-name="C corps Ombre" class="cls-2" d="M250.13,215.51c-.62-.78-1.17-1.49-1.67-2.19-.18-.24-.36-.5-.54-.76l-.35-.51-.14-.2c-.18-.27-.37-.55-.54-.82l-.1-.15-.42-.67-.45-.73-.07-.12-.4-.68c-.57-1-1.12-2-1.63-3-.27.32-.55.63-.83.94.13.21.25.42.38.62l.42.67.1.15c.17.27.36.55.54.82l.14.2.35.51c.18.26.36.52.54.76.5.7,1,1.41,1.67,2.19l0,0a45.29,45.29,0,0,1-3.83,3.49,46.12,46.12,0,0,1-5,3.62,48.51,48.51,0,0,1-58.55-5.37,48.51,48.51,0,0,0,61.55,8.37,46.12,46.12,0,0,0,5-3.62,45.29,45.29,0,0,0,3.83-3.49Zm-12.57-77.39c-.17.21-.33.43-.49.65-.33.43-.65.87-1,1.31s-.42.59-.63.89l-.35.51-.38.57c-.84,1.24-1.65,2.55-2.41,3.91-.14.22-.26.46-.39.69a37.23,37.23,0,0,0-44.2,59.54,37.23,37.23,0,0,1,47.2-56.54c.13-.23.25-.47.39-.69.76-1.36,1.57-2.67,2.41-3.91l.38-.57.35-.51c.21-.3.41-.59.63-.89s.64-.88,1-1.31.45-.61.69-.9l.5-.62,0,0C240.07,139.47,238.84,138.77,237.56,138.12Z"/><path id="E_corps_Ombre" data-name="E corps Ombre" class="cls-2" d="M172.78,214.85a55.16,55.16,0,0,1-5.87-9.29c-.27.32-.54.63-.82.93a54.75,54.75,0,0,0,3.69,5.36l.38.7a48.54,48.54,0,0,1-67.43,1.72,48.55,48.55,0,0,0,70.43,1.28Zm-20.25-80c0,.06,0,.11,0,.17a32.43,32.43,0,0,1-2,9.28,37.23,37.23,0,0,0-39.73,61.89,37.23,37.23,0,0,1,42.73-58.89,32.43,32.43,0,0,0,2-9.28c0-.71.07-1.42.07-2.14C154.59,135.54,153.57,135.19,152.53,134.88Z"/><path id="E_branche_Ombre_2" data-name="E branche Ombre 2" class="cls-2" d="M142.54,102.87l.52-.88a44.85,44.85,0,0,1,8.14,6.29,37.48,37.48,0,0,1,3.51,6.09A38.28,38.28,0,0,0,142.54,102.87Z"/><path id="E_branche_Ombre_1" data-name="E branche Ombre 1" class="cls-2" d="M164.79,143.6a44.8,44.8,0,0,1-3,13.68,46.17,46.17,0,0,1-3.23,6.59c-.56.93-1.16,1.83-1.79,2.71a34.93,34.93,0,0,1-46,9.54,27.45,27.45,0,0,1,.87-3.38,34.94,34.94,0,0,0,42.1-11.51c.63-.87,1.23-1.78,1.79-2.71a46.59,46.59,0,0,0,3.23-6.58,44.93,44.93,0,0,0,2.19-25.68c-.13-.7-.29-1.39-.47-2.08a45.73,45.73,0,0,0-3-8.27,45.38,45.38,0,0,1,6,13.62c.18.69.34,1.38.47,2.07A44.64,44.64,0,0,1,164.79,143.6Z"/><g id="O_ombre" data-name="O ombre"><path class="cls-2" d="M267.87,209.46c.39.34.78.67,1.18,1L254.59,212c-.81-1-1.57-2-2.28-3.08l13.49-1.4Q266.79,208.49,267.87,209.46Z"/><path class="cls-2" d="M299.89,142.7l-.92,2.08c-1.05-.19-2.12-.34-3.19-.43h0c-34.34-2.79-53.12,37.45-31.07,61.94-26.6-24-7.72-67.84,28.07-64.94h0A36.71,36.71,0,0,1,299.89,142.7Z"/><path class="cls-2" d="M301.87,148l1-2.31q-1.58-.47-3.18-.78l16.12-1.74-7.37-10.08.3-.69c2.16,3,7.83,10.72,10.07,13.77Z"/><path class="cls-2" d="M330.4,211.76c-12.29,15.73-34.6,22.33-53.46,15.76l-1.24,2.78L273,226.62l.93-2.1c18.86,6.57,41.17,0,53.46-15.76,13.39-16.23,14-40.88,2-58l.65-.07C344.4,167.81,344.61,194.53,330.4,211.76Z"/></g><g id="Feuilles_ombres" data-name="Feuilles ombres"><path class="cls-2" d="M125.38,85.26a.31.31,0,0,1,0,.08l.07-.06Zm10.35,12.63c-2.35,0-6.61-.35-9.17-3a9.74,9.74,0,0,1-1.3-1.74,12.46,12.46,0,0,0,2.3,3.74c3.05,3.17,8.49,3.1,10.27,3C137.18,99.27,136.47,98.62,135.73,97.89Zm1-8a17.2,17.2,0,0,1,.72,7.32c-.88-1.07-2-2.32-3.2-3.6-3.3-3.45-8.34-7.84-8.65-8.1.17.21,1.57,2,3.35,4.07,1.82,1.66,4.36,4,6.3,6,1.23,1.28,2.32,2.53,3.2,3.6C138.66,97.64,138.92,93.11,136.77,89.9ZM125.4,85.34l.07-.06-.09,0A.31.31,0,0,1,125.4,85.34Z"/><path class="cls-2" d="M162.31,93.49l.06.07s0-.06,0-.09Zm3.27-1.38c-.59,3-2,8.33-4.55,10.94-1.95,2-4.82,2.62-7.12,2.79-.78.75-1.53,1.42-2.21,2,1.78.15,7.22.33,10.33-2.79,3.75-3.77,4.93-13.16,4.93-13.16S166.43,92,165.58,92.11Zm-3.19,1.36-.08,0,.06.07S162.38,93.5,162.39,93.47Zm-.08,0,.06.07s0-.06,0-.09Zm-9,8.16c-.83.84-1.6,1.66-2.28,2.43,0,.54-.06,1,0,1.5,1-.84,2.1-1.87,3.24-3,3.48-3.49,7.93-8.85,7.93-8.85S156.8,98.16,153.32,101.65ZM151,105.86c0,.55,0,1,.06,1.33.35-.41.72-.83,1.14-1.28C151.73,105.91,151.33,105.88,151,105.86Z"/><path class="cls-2" d="M132.78,102.38c-4.33,1.69-9.87,3.38-10.23,3.48.3-.16,4.33-2.24,8.21-4A15.66,15.66,0,0,0,132.78,102.38Z"/><path class="cls-2" d="M139.16,102c-.13.39-.33,1-.61,1.63-1,2.24-2.82,5.55-6,6.83-4.92,2-14-.54-14-.54s.36-.61,1-1.54c3,.63,8.58,1.5,12.08.08a11.22,11.22,0,0,0,5.27-5.36l.82-.39C138.21,102.46,138.7,102.22,139.16,102Z"/></g></g><g id="Eco_couleurs" data-name="Eco couleurs"><g id="O"><path class="cls-3" d="M264.88,206.46c-26.88-24-8-68,27.88-65.11h0a36.67,36.67,0,0,1,7.12,1.35l-1,2.31,16.95-1.83-10.07-13.77-1.24,2.83c-.48-.16-.94-.3-1.41-.44a48.54,48.54,0,0,0-9.26-1.77h0c-42.66-3.7-69,45.51-42.22,78.93l14.47-1.51C265.66,207.13,265.26,206.8,264.88,206.46Z"/><path class="cls-4" d="M273.94,224.52c18.86,6.58,41.17,0,53.46-15.75,14.22-17.23,14-44-.33-61.05l-14.52,1.53a36.34,36.34,0,0,1,3.21,2.87c27,27.88,0,72.64-37.21,61.95l1-2.36-16.95,1.83c2.23,3.05,7.91,10.82,10.07,13.76Z"/></g><path id="C" class="cls-5" d="M249.56,162.44l0-.05.09-.22C249.63,162.26,249.59,162.35,249.56,162.44Zm-2.42,50.07c-.63-.78-1.18-1.49-1.68-2.19-.17-.23-.36-.5-.53-.76l-.36-.51-.14-.2-.54-.82-.09-.14-.43-.67-.44-.74-.08-.12-.4-.68c-.57-1-1.12-2-1.63-3a37,37,0,0,1-4.21,4.19,38.57,38.57,0,0,1-4.65,3.38,37.25,37.25,0,1,1,0-63.56l.39-.7c.77-1.36,1.57-2.67,2.41-3.91l.38-.57.35-.51.63-.89,1-1.31c.23-.3.45-.6.69-.9l.5-.62s0,0,0,0a48.57,48.57,0,0,0-74.34,41.21,48.58,48.58,0,0,0,74.35,41.21,47.24,47.24,0,0,0,5-3.62,45.16,45.16,0,0,0,3.82-3.49Z"/><path id="E_branche" data-name="E branche" class="cls-6" d="M161.8,138.26a45.24,45.24,0,0,1-3.06,13.68,46.59,46.59,0,0,1-3.23,6.58c-.55.93-1.15,1.84-1.78,2.71a34.94,34.94,0,0,1-46,9.54,27.86,27.86,0,0,1,1.86-6l2.56-4.27a29.65,29.65,0,0,0,39.11-7.92c.53-.74,1-1.51,1.52-2.3a38.39,38.39,0,0,0,2.75-5.57,38.05,38.05,0,0,0,1.93-21.79c-.11-.59-.24-1.17-.39-1.76a38.23,38.23,0,0,0-17.56-23.62l.52-.87a45,45,0,0,1,20.4,27.53c.18.69.34,1.38.47,2.08A45,45,0,0,1,161.8,138.26Z"/><path id="E_corps" data-name="E corps" class="cls-5" d="M169.78,211.85a54.48,54.48,0,0,1-5.86-9.29,37.23,37.23,0,1,1-13.41-58.23,32.44,32.44,0,0,0,2-9.27c0-.72.07-1.43.07-2.15a48.62,48.62,0,1,0,17.57,79.64Z"/><g id="E_Feuilles" data-name="E Feuilles"><path id="Feuille_centre" data-name="Feuille centre" class="cls-7" d="M133.36,94.51c-3.41-3.56-7.74-9-7.74-9s5.26,4.56,8.67,8.12c1.23,1.28,2.32,2.53,3.2,3.6.19-1.77.49-7.21-2.56-10.39-3.68-3.83-13.05-5.22-13.05-5.22s1,9.42,4.68,13.26c3.05,3.17,8.49,3.1,10.27,3C135.79,96.92,134.59,95.79,133.36,94.51Zm-8-9.17a.31.31,0,0,0,0-.08l.09,0Z"/><path id="Feuille_gauche" data-name="Feuille gauche" class="cls-8" d="M153.32,101.65c3.49-3.49,8.84-7.94,8.84-7.94s-4.44,5.36-7.93,8.85c-1.25,1.26-2.47,2.38-3.52,3.28,1.77.15,7.22.33,10.33-2.79,3.74-3.77,4.93-13.16,4.93-13.16s-9.4,1.21-13.16,5c-3.1,3.12-2.91,8.56-2.75,10.33C151,104.13,152.07,102.91,153.32,101.65Zm9-8.16.08,0s0,.06,0,.09Z"/><path id="Feuille_droite" data-name="Feuille droite" class="cls-9" d="M138.17,100c-.13.39-.33,1-.61,1.63-.95,2.24-2.82,5.55-6,6.83-4.92,2-14-.54-14-.54s4.14-7.14,8.69-9.73a15.44,15.44,0,0,0,7.42,2.46l-.36.15c-4.43,1.8-10.37,4.88-10.74,5.07.39-.11,6.79-2.06,11.22-3.87,1-.42,2-.86,2.91-1.29C137.22,100.46,137.71,100.22,138.17,100Z"/></g></g></g><g id="Actitude"><path class="cls-10" d="M142.47,289.54,129.83,256.1h-1.14l-11.28,29.76c-2.72,7.08-5.44,9.16-8.16,9.44v.93h13.6v-.93c-4.87-.22-6-3.49-3.18-10.92l0-.11h13.18l1.92,5.39c1.1,3.54.46,5.47-2.77,5.64v.93h16.44v-.93C146,295.13,143.88,293.29,142.47,289.54Zm-22.08-7.37,6.17-16.55,5.53,16.55Z"/><path class="cls-10" d="M172.23,288.3l.57.22C171,294,167.58,297,162.54,297c-7,0-12.08-5.5-12.08-13.32,0-8.17,5-14.38,12.61-14.38,5.62,0,9,3.38,9,6a3.17,3.17,0,0,1-3.12,3.23,3.35,3.35,0,0,1-3.23-2.55c-.85-2.95-1.19-5.33-4.14-5.33-3.34,0-6,3.46-6,9.7,0,7.54,4.42,11.73,9.75,11.73A7.66,7.66,0,0,0,172.23,288.3Z"/><path class="cls-10" d="M191.56,290.62l.51.34c-2.6,4.42-5.61,6.07-8,6.07-3.35,0-5.39-2.84-5.39-6.41v-18.2h-4V271c4.31-1.14,7.94-5.44,9.42-11.4h.79v11.06h6.57v1.75h-6.57V289.2c0,2.89,1,4,2.66,4C188.84,293.23,190.26,292.49,191.56,290.62Z"/><path class="cls-10" d="M197.46,261.26a4,4,0,1,1,4,3.91A3.93,3.93,0,0,1,197.46,261.26Z"/><path class="cls-10" d="M208.74,295.72v.51H194.17v-.51c2.1-.17,4.2-1.07,4.2-4.82v-13c0-3.74-1.93-4.65-4.48-4.54v-.51l10.32-3,.45.17-.11,6.57V290.9C204.55,294.65,206.65,295.55,208.74,295.72Z"/><path class="cls-10" d="M227.05,290.62l.51.34C225,295.38,222,297,219.51,297c-3.34,0-5.38-2.84-5.38-6.41V272.41h-4V271c4.31-1.14,7.94-5.44,9.41-11.4h.8v11.06h6.57v1.74h-6.57V289.2c0,2.89,1,4,2.66,4C224.33,293.23,225.75,292.49,227.05,290.62Z"/><path class="cls-10" d="M258.46,295v.51l-9.75,1.31-.45-.17v-4.2c-2.67,3.06-5.73,4.54-8.79,4.54-4,0-6.52-2.61-6.52-7.2v-12c0-3.74-1.93-4.65-4.48-4.54v-.51l10.21-3,.45.17v18.08c0,4.48,1.36,6.29,4,6.29a7,7,0,0,0,5-2.83V277.87c0-3.74-1.93-4.65-4.48-4.54v-.51l10.2-3,.46.17v20.23C254.27,294,255.8,295.16,258.46,295Z"/><path class="cls-10" d="M284.88,290.34V253.89l-.45-.17-10.21,3v.51c2.55-.11,4.48.8,4.48,4.54v9.75a7.86,7.86,0,0,0-5.15-2.19c-6.18,0-12.25,6.67-12.25,15.28,0,7.26,4.25,12.42,9.18,12.42,3.91,0,7.09-3.35,8.39-6.13v5.9l.45.17,9.75-1.3v-.51C286.41,295.27,284.88,294.08,284.88,290.34Zm-6.18-.46a5.41,5.41,0,0,1-4.76,2.67c-4.08,0-6.86-4.37-6.86-11.28,0-7.26,3.06-10.72,6.29-10.72,2,0,4.42,1.31,5.33,5.67Z"/><path class="cls-10" d="M306.31,292.15c-5.5,0-9.3-4.76-9.3-11.28l17,0c0-7.41-4.84-11.58-10.12-11.58-5.89,0-12.07,6-12.07,14.55,0,7.48,5,13.15,11.73,13.15,4.65,0,8.56-2.61,10.38-8.51l-.57-.22A7.9,7.9,0,0,1,306.31,292.15Zm-3.23-21.43c2.78,0,4.7,2.33,4.87,8.51H297.07C297.47,274,299.9,270.72,303.08,270.72Z"/></g></g></svg>