<?xml version="1.0" encoding="UTF-8"?><svg id="Calque_1" xmlns="http://www.w3.org/2000/svg" viewBox="0 0 759 768"><defs><style>.cls-1{fill:#f299ab;}.cls-2{fill:#0c7155;}</style></defs><g id="Calque_10"><path id="Font_transparent" class="cls-2" d="m551.44,75.62h0Zm6.6,9.17h0Zm-6.6-9.17h0Zm-188.71-41.78h0Zm195.18,50.95h0Zm-195.04-50.95h0Zm0,0h0Zm188.71,41.78h0Zm6.6,9.17h0Zm0,0h0Zm-6.6-9.17h0Zm-188.71-41.78h0Z"/><path class="cls-1" d="m322.43,148.81c11.09-19.34,26.11-36.14,44.08-49.33,11.32,7.28,24.31,11.54,37.74,12.4l-1.89.81c-22.51,9.17-52.57,24.67-53.92,25.74,2.02-.67,34.37-10.51,56.88-19.68,5.26-2.16,10.24-4.31,14.83-6.6h0l3.77,4.72c-5.3,14.96-16.1,27.34-30.19,34.64-24.94,10.11-71.3-2.7-71.3-2.7Z"/><path class="cls-1" d="m368.8,82.63c-18.74-19.54-23.72-67.39-23.72-67.39,0,0,47.58,7.01,66.18,26.96,15.5,16.04,13.48,43.67,13.48,52.57-4.45-5.39-9.97-11.73-16.17-18.2-16.17-16.98-40.44-38.42-43.67-40.44,2.43,3.1,22.78,28.58,38.95,45.42,6.2,6.6,12.27,12.27,17.66,16.98-9.57-.13-37.2.13-52.7-15.91Z"/><path class="cls-2" d="m434.71,107.97l2.56-4.45c51.58,31.07,88.79,81.26,103.52,139.64.9,3.5,1.71,7.01,2.43,10.51,4.36,20,5.99,40.49,4.85,60.93-2.51,36.31-13.59,71.51-32.35,102.71-2.83,4.64-5.89,9.14-9.17,13.48-53.7,73.72-154.58,94.66-233.19,48.39,2-10.53,5.21-20.8,9.57-30.6l13.48-21.7c66.2,39.69,151.7,22.73,197.74-39.22,2.7-3.77,5.26-7.68,7.68-11.59,5.18-9.09,9.69-18.55,13.48-28.31,14.05-35.08,17.42-73.53,9.7-110.53-.54-2.97-1.21-5.93-2.02-8.9-12.17-50.31-43.96-93.65-88.29-120.37Z"/><path class="cls-1" d="m489.3,134.93c-.81-9.03-1.75-36.53,13.48-52.43,19.01-19.01,67.39-25.21,67.39-25.21,0,0-6.07,47.72-25.07,67.39-15.77,15.77-43.4,14.83-52.43,14.15,5.39-4.58,11.59-10.24,17.93-16.71,16.44-17.52,37.47-42.05,39.76-44.48-3.1,2.56-27.9,23.45-44.48,40.44-6.34,5.26-11.73,11.46-16.58,16.85Z"/><path class="cls-2" d="m588.51,675.98c0,1.21,1.21,2.43,1.89,3.64-95.76,96.79-251.85,97.63-348.64,1.87-96.79-95.76-97.63-251.85-1.87-348.64,68.22-68.96,170.53-91.5,261.42-57.6v10.92c-1.24,16.33-4.96,32.38-11.05,47.58-23.86-10.53-49.67-15.95-75.75-15.91-104.22.04-188.67,84.56-188.63,188.78.04,104.22,84.56,188.67,188.78,188.63,55.32-.02,107.84-24.31,143.68-66.45,8.41,16.73,18.52,32.54,30.19,47.18Z"/></g></svg>