<?xml version="1.0" encoding="utf-8"?>
<!-- Generator: Adobe Illustrator 27.4.1, SVG Export Plug-In . SVG Version: 6.00 Build 0)  -->
<svg version="1.1" id="Calque_1" xmlns="http://www.w3.org/2000/svg" xmlns:xlink="http://www.w3.org/1999/xlink" width="139" height="148" x="0px" y="0px"
	 viewBox="0 0 137.4 144.1" style="enable-background:new 0 0 137.4 144.1;" xml:space="preserve">
<style type="text/css">
	.st0{fill:#818181;}
	.st1{clip-path:url(#SVGID_00000164500003289656908950000004374005589965790356_);}
	.st2{fill:#0D4341;}
	.st3{fill:#EFEFEF;}
	.st4{fill:#67BCC4;}
	.st5{fill:#4AA66D;}
	.st6{fill:#196044;}
</style>
<ellipse class="st0" cx="55.3" cy="131.9" rx="54.4" ry="11.6"/>
<g>
	<g>
		<defs>
			<rect id="SVGID_1_" x="0.7" width="136.7" height="133.8"/>
		</defs>
		<clipPath id="SVGID_00000052090307733184199330000004659075093388813208_">
			<use xlink:href="#SVGID_1_"  style="overflow:visible;"/>
		</clipPath>
		<g id="Groupe_36" style="clip-path:url(#SVGID_00000052090307733184199330000004659075093388813208_);">
			<path id="Tracé_93" class="st2" d="M68.8,120.3c0.2-0.5,0.4-1,0.5-1.6c-0.1-0.1-0.2-0.1-0.2-0.2c-0.5-0.4-0.9-0.9-1.2-1.5
				c-0.5-1-0.3-2.3,0.3-3.2c0.7-0.9,1.8-1.5,2.9-1.6c0.6,0.3,1.5,2.2,1.5,2.2c0.1,0.2,0.3,0.4,0.6,0.5c0.8,0.2,1.7,0.2,2.5,0
				c0.5-0.1,0.9-0.1,1.4-0.2c0.8-0.1,1.6-0.4,2.2-1.1c0.1-0.6,0.3-1.2,0.5-1.8H80c1.1,0,2.1,0.5,2.9,1.2c0.6,0.6,1,1.4,1.1,2.3
				c0.1,0.6,0,1.3-0.2,1.9c0.9-0.3,2.1-0.4,3-0.6c0.2-0.1,0.3-0.2,0.5-0.3c0.2-0.1,1.1-0.6,1.2-0.6c0.2-0.1,0.6-0.3,0.8-0.3
				c2.8-1.3,5.9-1.5,8.9-0.7c5,1.4,7.9,6.2,6.2,11.2c-0.2,0.5-0.4,1.1-0.6,1.6c-0.2,0.4-0.4,0.8-0.6,1.2c0.2,0,0.3,0,0.5,0
				c1.5,0.2,1.4,2.5,1.3,3.7c-1.5,1.4-4.8,1.4-6.8,1.3c-3.3-0.1-7.3-0.3-10.6-0.4c-2.5-0.1-6-0.2-8.4-0.1c-2.7,0.1-5.4-0.1-8-0.5
				c-1.7-0.4-1.4-2.1-1.4-3.6c-1.7-1.3-2.5-3.4-2-5.4C68,122.6,68.3,121.4,68.8,120.3 M71,131.7L71,131.7
				C71.1,131.7,71.1,131.7,71,131.7L71,131.7L71,131.7c0.7,0.3,1.3,0.4,1.9,0.4c2.8,0.2,5.6,0.1,8.4,0.1c5.9,0.2,12.1,0.6,18,0.5
				c1.5,0.1,3.1-0.2,4.5-0.8c0-0.5,0-1-0.2-1.5c0-0.1-0.1-0.2-0.1-0.3c-0.3,0-0.7-0.1-1,0c-1.4,0.1-2.8,0.2-4.1,0.2
				c-1.4,0-2.8,0.1-4.2,0.1c-1.2,0-3-0.1-4.2-0.1c-5.5-0.2-11.1,0.1-16.5,0.8h-0.2l-0.2-0.1c-0.8-0.2-1.5-0.6-2.2-1
				C70.6,130.5,70.7,131.2,71,131.7 M73.6,129.4c5.5-0.5,11-0.5,16.5,0c1.2,0.1,3,0.2,4.1,0.2c1.4,0,2.8-0.1,4.1-0.3
				c1.1-0.2,2.2-0.4,3.4-0.4h-0.1c1-0.5,1.7-1.4,1.9-2.4c0.1-0.3,0.2-0.7,0.3-1c1-4.1-2.1-8.2-6-9.4c-2.7-0.8-5.6-0.6-8.2,0.4
				c-0.2,0.1-0.6,0.2-0.7,0.3c-0.2,0.1-1,0.5-1.2,0.5c-1,0.5-1.9,1-2.8,1.6c-0.9,0.7-1.8,1.3-2.7,1.8c0.7-0.9,1.5-1.7,2.3-2.3
				c0.1-0.1,0.1-0.1,0.2-0.1c-0.8,0.3-1.9,0.7-2.5,0.9c-0.4,0.2-1,0.3-1.4,0.2c0.1,0,0.1,0,0.2-0.1h0.1c0.1,0,0.1-0.1,0.2-0.1l0,0
				c0,0,0.1,0,0.1-0.1l0.1-0.1l0,0l0.1-0.1l0.1-0.1l0.1-0.1c0.1-0.1,0.1-0.1,0.2-0.2l0.1-0.1l0,0l0.1-0.1c0,0,0-0.1,0.1-0.1
				s0.1-0.1,0.1-0.1c0-0.1,0.1-0.1,0.1-0.2s0-0.1,0.1-0.2s0-0.1,0.1-0.1l0,0c0-0.1,0-0.1,0.1-0.2c0,0,0,0,0-0.1v-0.1l0,0l0,0v-0.1
				V117v-0.1v-0.1v-0.1v-0.1l0,0c0-0.1,0-0.2,0-0.3l0,0l0,0v-0.1v-0.1c-0.2-1.3-1.2-2.4-2.6-2.7c-0.1,1-0.7,1.8-1.5,2.4
				c-1.4,0.9-3,1.3-4.6,1.2c-2.1-0.1-3-1.4-3.1-3.3v0.2c-0.2-0.1-0.4-0.1-0.5,0c-0.6,0.2-1.1,0.6-1.4,1.2c-0.3,0.4-0.5,0.9-0.5,1.4
				v0.1v0.1l0,0v0.1v0.1v0.1c0,0,0,0,0,0.1c0,0,0,0,0,0.1v0.1l0.1,0.1c0.1,0.2,0.2,0.3,0.3,0.5l0.1,0.1c0.2,0.3,0.5,0.5,0.8,0.8
				l0.1,0.1l0.1,0.1c0,0,0.1,0,0.1,0.1c0.1,0,0.1,0.1,0.2,0.1c0.8,0.5,1.7,1,2.6,1.3c-1.3-0.2-2.5-0.6-3.7-1.2
				c0.2,1.1,0.2,2.3-0.1,3.4C68.4,126.5,69.8,127.9,73.6,129.4"/>
			<path id="Tracé_94" class="st3" d="M69.5,122.3c-1,4.2,0.4,5.6,4.1,7.2c5.5-0.5,11-0.5,16.5,0c1.2,0.1,3,0.2,4.1,0.2
				c1.4,0,2.8-0.1,4.1-0.3c1.1-0.2,2.2-0.4,3.4-0.4h-0.1c1-0.5,1.7-1.4,1.9-2.4c0.1-0.3,0.2-0.7,0.3-1c1-4.1-2.1-8.2-6-9.4
				c-2.7-0.8-5.6-0.6-8.2,0.4c-0.2,0.1-0.6,0.2-0.7,0.3c-0.2,0.1-1,0.5-1.2,0.5c-1,0.5-1.9,1-2.8,1.6c-0.9,0.7-1.8,1.3-2.7,1.8
				c0.7-0.9,1.5-1.7,2.3-2.3c0.1-0.1,0.1-0.1,0.2-0.1c-0.8,0.3-1.9,0.7-2.5,0.9c-0.4,0.2-1,0.3-1.4,0.2c1.7-0.7,2.5-2.7,1.8-4.4
				c-0.4-1-1.3-1.7-2.3-2c-0.1,1-0.7,1.8-1.5,2.4c-1.4,0.9-3,1.3-4.6,1.2c-2.1-0.1-3-1.4-3.1-3.3v0.2c-0.2-0.1-0.4-0.1-0.5,0
				c-0.6,0.2-1.1,0.6-1.4,1.2c-1.2,1.6-0.1,3.3,1.4,4.2c0.8,0.5,1.7,1,2.6,1.3c-1.3-0.2-2.5-0.6-3.7-1.2
				C69.8,120,69.8,121.2,69.5,122.3"/>
			<path id="Tracé_95" class="st2" d="M68.8,120.3c0.2-0.5,0.4-1,0.5-1.6c-0.1-0.1-0.2-0.1-0.2-0.2c-0.5-0.4-0.9-0.9-1.2-1.5
				c-0.5-1-0.3-2.3,0.3-3.2c0.7-0.9,1.8-1.5,2.9-1.6c0.6,0.3,1.5,2.2,1.5,2.2c0.1,0.2,0.3,0.4,0.6,0.5c0.8,0.2,1.7,0.2,2.5,0
				c0.5-0.1,0.9-0.1,1.4-0.2c0.8-0.1,1.6-0.4,2.2-1.1c0.1-0.6,0.3-1.2,0.5-1.8H80c1.1,0,2.1,0.5,2.9,1.2c0.6,0.6,1,1.4,1.1,2.3
				c0.1,0.6,0,1.3-0.2,1.9c0.9-0.3,2.1-0.4,3-0.6c0.2-0.1,0.3-0.2,0.5-0.3c0.2-0.1,1.1-0.6,1.2-0.6c0.2-0.1,0.6-0.3,0.8-0.3
				c2.8-1.3,5.9-1.5,8.9-0.7c5,1.4,7.9,6.2,6.2,11.2c-0.2,0.5-0.4,1.1-0.6,1.6c-0.2,0.4-0.4,0.8-0.6,1.2c0.2,0,0.3,0,0.5,0
				c1.5,0.2,1.4,2.5,1.3,3.7c-1.5,1.4-4.8,1.4-6.8,1.3c-3.3-0.1-7.3-0.3-10.6-0.4c-2.5-0.1-6-0.2-8.4-0.1c-2.7,0.1-5.4-0.1-8-0.5
				c-1.7-0.4-1.4-2.1-1.4-3.6c-1.7-1.3-2.5-3.4-2-5.4C68,122.6,68.3,121.4,68.8,120.3 M71,131.7L71,131.7
				C71.1,131.7,71.1,131.7,71,131.7L71,131.7L71,131.7c0.7,0.3,1.3,0.4,1.9,0.4c2.8,0.2,5.6,0.1,8.4,0.1c5.9,0.2,12.1,0.6,18,0.5
				c1.5,0.1,3.1-0.2,4.5-0.8c0-0.5,0-1-0.2-1.5c0-0.1-0.1-0.2-0.1-0.3c-0.3,0-0.7-0.1-1,0c-1.4,0.1-2.8,0.2-4.1,0.2
				c-1.4,0-2.8,0.1-4.2,0.1c-1.2,0-3-0.1-4.2-0.1c-5.5-0.2-11.1,0.1-16.5,0.8h-0.2l-0.2-0.1c-0.8-0.2-1.5-0.6-2.2-1
				C70.6,130.5,70.7,131.2,71,131.7 M73.6,129.4c5.5-0.5,11-0.5,16.5,0c1.2,0.1,3,0.2,4.1,0.2c1.4,0,2.8-0.1,4.1-0.3
				c1.1-0.2,2.2-0.4,3.4-0.4h-0.1c1-0.5,1.7-1.4,1.9-2.4c0.1-0.3,0.2-0.7,0.3-1c1-4.1-2.1-8.2-6-9.4c-2.7-0.8-5.6-0.6-8.2,0.4
				c-0.2,0.1-0.6,0.2-0.7,0.3c-0.2,0.1-1,0.5-1.2,0.5c-1,0.5-1.9,1-2.8,1.6c-0.9,0.7-1.8,1.3-2.7,1.8c0.7-0.9,1.5-1.7,2.3-2.3
				c0.1-0.1,0.1-0.1,0.2-0.1c-0.8,0.3-1.9,0.7-2.5,0.9c-0.4,0.2-1,0.3-1.4,0.2c0.1,0,0.1,0,0.2-0.1h0.1c0.1,0,0.1-0.1,0.2-0.1l0,0
				c0,0,0.1,0,0.1-0.1l0.1-0.1l0,0l0.1-0.1l0.1-0.1l0.1-0.1c0.1-0.1,0.1-0.1,0.2-0.2l0.1-0.1l0,0l0.1-0.1c0,0,0-0.1,0.1-0.1
				s0.1-0.1,0.1-0.1c0-0.1,0.1-0.1,0.1-0.2s0-0.1,0.1-0.2s0-0.1,0.1-0.1l0,0c0-0.1,0-0.1,0.1-0.2c0,0,0,0,0-0.1v-0.1l0,0l0,0v-0.1
				V117v-0.1v-0.1v-0.1v-0.1l0,0c0-0.1,0-0.2,0-0.3l0,0l0,0v-0.1v-0.1c-0.2-1.3-1.2-2.4-2.6-2.7c-0.1,1-0.7,1.8-1.5,2.4
				c-1.4,0.9-3,1.3-4.6,1.2c-2.1-0.1-3-1.4-3.1-3.3v0.2c-0.2-0.1-0.4-0.1-0.5,0c-0.6,0.2-1.1,0.6-1.4,1.2c-0.3,0.4-0.5,0.9-0.5,1.4
				v0.1v0.1l0,0v0.1v0.1v0.1c0,0,0,0,0,0.1c0,0,0,0,0,0.1v0.1l0.1,0.1c0.1,0.2,0.2,0.3,0.3,0.5l0.1,0.1c0.2,0.3,0.5,0.5,0.8,0.8
				l0.1,0.1l0.1,0.1c0,0,0.1,0,0.1,0.1c0.1,0,0.1,0.1,0.2,0.1c0.8,0.5,1.7,1,2.6,1.3c-1.3-0.2-2.5-0.6-3.7-1.2
				c0.2,1.1,0.2,2.3-0.1,3.4C68.4,126.5,69.8,127.9,73.6,129.4"/>
			<path id="Tracé_96" class="st3" d="M71,131.7L71,131.7C71.1,131.7,71.1,131.7,71,131.7L71,131.7L71,131.7
				c0.7,0.3,1.3,0.4,1.9,0.4c2.8,0.2,5.6,0.1,8.4,0.1c5.9,0.2,12.1,0.6,18,0.5c1.5,0.1,3.1-0.2,4.5-0.9c0-0.5,0-1-0.2-1.5
				c0-0.1-0.1-0.2-0.1-0.3c-0.3,0-0.7-0.1-1,0c-1.4,0.1-2.8,0.2-4.1,0.2c-1.4,0-2.8,0.1-4.2,0.1c-1.2,0-3-0.1-4.2-0.1
				c-5.5-0.2-11.1,0.1-16.5,0.8h-0.2l-0.2-0.1c-0.8-0.2-1.5-0.6-2.2-1C70.7,130.5,70.7,131.2,71,131.7"/>
			<path id="Tracé_97" class="st2" d="M63.1,90.2c2.2,3.2,5.6,13.4,7.4,19.6c0.3,0.9,0.5,1.7,0.7,2.4c0.6,0.3,1.5,2.2,1.5,2.2
				c0.1,0.2,0.3,0.4,0.6,0.6c0.8,0.2,1.7,0.2,2.5,0c0.5-0.1,0.9-0.1,1.4-0.2c0.8-0.1,1.6-0.4,2.2-1.1c0.1-0.6,0.3-1.2,0.6-1.8
				c-0.1-0.6-0.3-1.3-0.5-2.1c-1.6-6.4-5.3-18.3-6.9-20.9L72.5,89l-3.4,0.4L64,89.6l0,0L63.1,90.2z"/>
			<path id="Tracé_98" class="st2" d="M43,123.8c0.4,2-0.3,4.2-2,5.4c0,1.4,0.2,3.2-1.4,3.6c-2.7,0.5-5.3,0.6-8,0.5
				c-2.4-0.1-6,0-8.4,0.1c-3.3,0.1-7.3,0.3-10.6,0.4c-2,0.1-5.3,0.1-6.8-1.3c-0.1-1.1-0.2-3.5,1.3-3.7c0.2,0,0.3,0,0.5,0
				c-0.2-0.4-0.4-0.8-0.6-1.2c-0.2-0.5-0.5-1-0.6-1.6c-1.7-5.1,1.1-9.8,6.2-11.2c2.9-0.8,6.1-0.5,8.9,0.7c0.2,0.1,0.6,0.3,0.8,0.3
				c0.2,0.1,1,0.5,1.2,0.6s0.3,0.2,0.5,0.3c0.9,0.2,2.1,0.3,3,0.6c-0.2-0.6-0.3-1.3-0.2-1.9c0.1-0.9,0.5-1.7,1.1-2.3
				c0.8-0.8,1.8-1.2,2.9-1.2H31c0.3,0.6,0.5,1.2,0.5,1.8c0.6,0.6,1.4,1,2.2,1.1c0.5,0.1,0.9,0.1,1.4,0.2c0.8,0.2,1.7,0.2,2.5,0
				c0.2-0.1,0.4-0.3,0.6-0.5c0,0,0.9-1.9,1.5-2.2c1.2,0.1,2.2,0.7,2.9,1.6s0.8,2.1,0.3,3.2c-0.3,0.6-0.6,1.1-1.2,1.5
				c-0.1,0.1-0.2,0.1-0.2,0.2c0.1,0.5,0.3,1.1,0.5,1.6C42.4,121.4,42.8,122.6,43,123.8 M39.8,130c-0.7,0.4-1.5,0.7-2.2,1l-0.2,0.1
				h-0.2c-5.5-0.8-11-1-16.5-0.8c-1.2,0-3,0.1-4.2,0.1c-1.4,0-2.8-0.1-4.2-0.1s-2.8,0-4.1-0.2c-0.3,0-0.7,0-1,0
				c-0.1,0.1-0.1,0.2-0.1,0.3c-0.1,0.5-0.2,1-0.2,1.5c1.4,0.6,3,0.9,4.5,0.9c5.9,0.1,12.1-0.3,18-0.5c2.8,0,5.7,0.1,8.4-0.1
				c0.6,0,1.3-0.1,1.8-0.4l0,0l0,0l0,0l0,0C40.1,131.2,40.1,130.5,39.8,130 M41.3,122.3c-0.3-1.1-0.4-2.2-0.1-3.4
				c-1.1,0.6-2.4,1.1-3.7,1.2c0.9-0.3,1.8-0.8,2.6-1.3c0.1,0,0.1-0.1,0.2-0.1c0,0,0.1,0,0.1-0.1s0.1,0,0.1-0.1s0.1-0.1,0.1-0.1
				c0.3-0.2,0.5-0.5,0.8-0.8l0.1-0.1c0.1-0.2,0.2-0.3,0.3-0.5l0.1-0.1v-0.1c0,0,0,0,0-0.1c0,0,0,0,0-0.1v-0.1v-0.1v-0.1l0,0v-0.1
				v-0.1c0-0.5-0.2-1-0.5-1.4c-0.3-0.5-0.8-0.9-1.4-1.2c-0.2-0.1-0.4-0.1-0.5,0v-0.2c-0.1,1.9-1.1,3.2-3.1,3.3
				c-1.6,0.1-3.2-0.3-4.6-1.2c-0.8-0.6-1.3-1.4-1.5-2.4c-1.3,0.3-2.3,1.4-2.6,2.7v0.1v0.1l0,0l0,0c0,0.1,0,0.2,0,0.3l0,0v0.1v0.1
				v0.1v0.1v0.1v0.1l0,0l0,0v0.1c0,0,0,0,0,0.1s0,0.1,0.1,0.2l0,0c0,0,0,0.1,0.1,0.1s0,0.1,0.1,0.2c0,0.1,0.1,0.1,0.1,0.2l0.1,0.1
				c0,0,0,0.1,0.1,0.1s0.1,0.1,0.1,0.1l0,0c0,0,0,0.1,0.1,0.1c0.1,0.1,0.1,0.1,0.2,0.2l0.1,0.1l0.1,0.1l0.1,0.1l0,0l0.1,0.1l0.1,0.1
				l0,0c0.1,0,0.1,0.1,0.2,0.1h0.1c0,0,0.1,0,0.2,0.1c-0.5,0.1-1,0-1.4-0.2c-0.6-0.3-1.7-0.7-2.5-0.9c0.1,0.1,0.1,0.1,0.2,0.1
				c0.9,0.7,1.7,1.4,2.3,2.3c-0.9-0.6-1.8-1.2-2.7-1.8c-0.9-0.6-1.8-1.1-2.8-1.6c-0.2-0.1-1.1-0.5-1.2-0.5c-0.2-0.1-0.6-0.2-0.7-0.3
				c-2.6-1-5.5-1.2-8.2-0.4c-3.9,1.1-7,5.2-6,9.4c0.1,0.3,0.2,0.7,0.3,1c0.3,1,1,1.9,1.9,2.4H8.8c1.1,0.1,2.2,0.2,3.4,0.4
				c1.4,0.2,2.7,0.3,4.1,0.3c1.2,0,2.9-0.1,4.1-0.2c5.5-0.4,11-0.4,16.5,0C40.9,127.9,42.3,126.4,41.3,122.3"/>
			<path id="Tracé_99" class="st3" d="M41.3,122.3c1,4.2-0.4,5.6-4.1,7.2c-5.5-0.5-11-0.5-16.5,0c-1.2,0.1-3,0.2-4.1,0.2
				c-1.4,0-2.8-0.1-4.1-0.3c-1.1-0.2-2.2-0.4-3.4-0.4h0.1c-1-0.5-1.7-1.4-1.9-2.4c-0.1-0.3-0.2-0.7-0.3-1c-1-4.1,2.1-8.2,6-9.4
				c2.7-0.8,5.6-0.6,8.2,0.4c0.2,0.1,0.6,0.2,0.7,0.3c0.2,0.1,1,0.5,1.2,0.5c1,0.5,1.9,1,2.8,1.6c0.9,0.7,1.8,1.3,2.7,1.8
				c-0.7-0.9-1.5-1.7-2.3-2.3c-0.1-0.1-0.1-0.1-0.2-0.1c0.8,0.3,1.9,0.7,2.5,0.9c0.4,0.2,1,0.3,1.4,0.2c-1.7-0.7-2.5-2.7-1.8-4.4
				c0.4-1,1.3-1.7,2.3-2c0.1,1,0.7,1.8,1.5,2.4c1.4,0.9,3,1.3,4.6,1.2c2.1-0.1,3-1.4,3.1-3.3v0.2c0.2-0.1,0.4-0.1,0.5,0
				c0.6,0.2,1.1,0.6,1.4,1.2c1.2,1.6,0.1,3.3-1.4,4.2c-0.8,0.5-1.7,1-2.6,1.3c1.3-0.2,2.5-0.6,3.7-1.2C40.9,120,41,121.2,41.3,122.3
				"/>
			<path id="Tracé_100" class="st2" d="M43,123.8c0.4,2-0.3,4.2-2,5.4c0,1.4,0.2,3.2-1.4,3.6c-2.7,0.5-5.3,0.6-8,0.5
				c-2.4-0.1-6,0-8.4,0.1c-3.3,0.1-7.3,0.3-10.6,0.4c-2,0.1-5.3,0.1-6.8-1.3c-0.1-1.1-0.2-3.5,1.3-3.7c0.2,0,0.3,0,0.5,0
				c-0.2-0.4-0.4-0.8-0.6-1.2c-0.2-0.5-0.5-1-0.6-1.6c-1.7-5.1,1.1-9.8,6.2-11.2c2.9-0.8,6.1-0.5,8.9,0.7c0.2,0.1,0.6,0.3,0.8,0.3
				c0.2,0.1,1,0.5,1.2,0.6s0.3,0.2,0.5,0.3c0.9,0.2,2.1,0.3,3,0.6c-0.2-0.6-0.3-1.3-0.2-1.9c0.1-0.9,0.5-1.7,1.1-2.3
				c0.8-0.8,1.8-1.2,2.9-1.2H31c0.3,0.6,0.5,1.2,0.5,1.8c0.6,0.6,1.4,1,2.2,1.1c0.5,0.1,0.9,0.1,1.4,0.2c0.8,0.2,1.7,0.2,2.5,0
				c0.2-0.1,0.4-0.3,0.6-0.5c0,0,0.9-1.9,1.5-2.2c1.2,0.1,2.2,0.7,2.9,1.6s0.8,2.1,0.3,3.2c-0.3,0.6-0.6,1.1-1.2,1.5
				c-0.1,0.1-0.2,0.1-0.2,0.2c0.1,0.5,0.3,1.1,0.5,1.6C42.4,121.4,42.8,122.6,43,123.8 M39.8,130c-0.7,0.4-1.5,0.7-2.2,1l-0.2,0.1
				h-0.2c-5.5-0.8-11-1-16.5-0.8c-1.2,0-3,0.1-4.2,0.1c-1.4,0-2.8-0.1-4.2-0.1s-2.8,0-4.1-0.2c-0.3,0-0.7,0-1,0
				c-0.1,0.1-0.1,0.2-0.1,0.3c-0.1,0.5-0.2,1-0.2,1.5c1.4,0.6,3,0.9,4.5,0.9c5.9,0.1,12.1-0.3,18-0.5c2.8,0,5.7,0.1,8.4-0.1
				c0.6,0,1.3-0.1,1.8-0.4l0,0l0,0l0,0l0,0C40.1,131.2,40.1,130.5,39.8,130 M41.3,122.3c-0.3-1.1-0.4-2.2-0.1-3.4
				c-1.1,0.6-2.4,1.1-3.7,1.2c0.9-0.3,1.8-0.8,2.6-1.3c0.1,0,0.1-0.1,0.2-0.1c0,0,0.1,0,0.1-0.1s0.1,0,0.1-0.1s0.1-0.1,0.1-0.1
				c0.3-0.2,0.5-0.5,0.8-0.8l0.1-0.1c0.1-0.2,0.2-0.3,0.3-0.5l0.1-0.1v-0.1c0,0,0,0,0-0.1c0,0,0,0,0-0.1v-0.1v-0.1v-0.1l0,0v-0.1
				v-0.1c0-0.5-0.2-1-0.5-1.4c-0.3-0.5-0.8-0.9-1.4-1.2c-0.2-0.1-0.4-0.1-0.5,0v-0.2c-0.1,1.9-1.1,3.2-3.1,3.3
				c-1.6,0.1-3.2-0.3-4.6-1.2c-0.8-0.6-1.3-1.4-1.5-2.4c-1.3,0.3-2.3,1.4-2.6,2.7v0.1v0.1l0,0l0,0c0,0.1,0,0.2,0,0.3l0,0v0.1v0.1
				v0.1v0.1v0.1v0.1l0,0l0,0v0.1c0,0,0,0,0,0.1s0,0.1,0.1,0.2l0,0c0,0,0,0.1,0.1,0.1s0,0.1,0.1,0.2c0,0.1,0.1,0.1,0.1,0.2l0.1,0.1
				c0,0,0,0.1,0.1,0.1s0.1,0.1,0.1,0.1l0,0c0,0,0,0.1,0.1,0.1c0.1,0.1,0.1,0.1,0.2,0.2l0.1,0.1l0.1,0.1l0.1,0.1l0,0l0.1,0.1l0.1,0.1
				l0,0c0.1,0,0.1,0.1,0.2,0.1h0.1c0,0,0.1,0,0.2,0.1c-0.5,0.1-1,0-1.4-0.2c-0.6-0.3-1.7-0.7-2.5-0.9c0.1,0.1,0.1,0.1,0.2,0.1
				c0.9,0.7,1.7,1.4,2.3,2.3c-0.9-0.6-1.8-1.2-2.7-1.8c-0.9-0.6-1.8-1.1-2.8-1.6c-0.2-0.1-1.1-0.5-1.2-0.5c-0.2-0.1-0.6-0.2-0.7-0.3
				c-2.6-1-5.5-1.2-8.2-0.4c-3.9,1.1-7,5.2-6,9.4c0.1,0.3,0.2,0.7,0.3,1c0.3,1,1,1.9,1.9,2.4H8.8c1.1,0.1,2.2,0.2,3.4,0.4
				c1.4,0.2,2.7,0.3,4.1,0.3c1.2,0,2.9-0.1,4.1-0.2c5.5-0.4,11-0.4,16.5,0C40.9,127.9,42.3,126.4,41.3,122.3"/>
			<path id="Tracé_101" class="st3" d="M39.7,131.7L39.7,131.7L39.7,131.7L39.7,131.7L39.7,131.7c-0.7,0.3-1.3,0.4-1.9,0.4
				c-2.8,0.2-5.6,0.1-8.4,0.1c-5.9,0.2-12.1,0.6-18,0.5c-1.5,0.1-3.1-0.2-4.5-0.9c0-0.5,0-1,0.2-1.5c0-0.1,0.1-0.2,0.1-0.3
				c0.3,0,0.7-0.1,1,0c1.4,0.1,2.8,0.2,4.1,0.2c1.4,0,2.8,0.1,4.2,0.1c1.2,0,3-0.1,4.2-0.1c5.5-0.2,11.1,0.1,16.5,0.8h0.2l0.2-0.1
				c0.8-0.2,1.5-0.6,2.2-1C40.1,130.5,40.1,131.2,39.7,131.7"/>
			<path id="Tracé_102" class="st2" d="M30.9,111.9c0.3,0.6,0.5,1.2,0.6,1.8c0.6,0.6,1.4,1,2.2,1.1c0.5,0.1,0.9,0.1,1.4,0.2
				c0.8,0.2,1.7,0.2,2.5,0c0.2-0.1,0.5-0.3,0.6-0.6c0,0,0.9-1.9,1.5-2.2c0.2-0.7,0.4-1.5,0.7-2.4c1.9-6.3,5.3-16.5,7.4-19.6l-1-0.7
				l0,0L42,89.4L38.6,89l-0.3,0c-1.7,2.6-5.3,14.4-6.9,20.9C31.2,110.6,31,111.3,30.9,111.9"/>
			<path id="Tracé_103" class="st4" d="M58.5,21.7H53c-0.1,0.1-0.3,0.1-0.4,0.1c-2.8,0.2-5.6,0.8-8.3,1.6c-2.9,0.9-5.7,2.2-8.3,3.8
				c0.8,1.1,1.5,2.2,2.2,3.4c1.3,2.1,2,4.5,2,7c0,1.1-0.5,2.2-1.5,2.9c-1.3,1-3.1,1.1-4.5,0.2c-1.4-0.9-2.1-2.6-1.8-4.3
				c0.2-1,0.2-2,0-2.9c-0.1-0.6-0.7-1.1-1.3-1c-0.2,0-0.4,0.1-0.5,0.2c-0.8,0.4-1.4,1.2-1.6,2.2c-0.8,3.1-0.2,6.4,1.5,9.2
				c0.6,1,1.6,1.7,2.8,1.7s2.4,0.1,3.5,0.2c1.4,0.1,2.8,0.3,4.1,0.7c4.2,1.3,4.9,7,2.2,9.5c-1.5,1.3-3.5,1.7-5.4,1
				c-1.8-0.6-3.5-1.6-4.9-2.8c-1-0.9-2.2-1.8-3.3-2.6c-1.6-1.1-3.7-0.9-5,0.6c-0.7,0.7-1.2,1.5-1.7,2.3c-1.2,2-2.1,4.2-3,6.3
				c-0.4,1.1-1.1,2-2,2.6c0.1,1.3,0.3,2.6,0.6,3.8c3-0.4,5.7-1.9,7.7-4.2c0.8-0.8,1.9-1.4,3-1.6c2.8-0.7,5.8-0.6,8.6,0.2
				c3.4,0.6,6.5,2.3,8.9,4.7c3,3,3.4,7.6,1,11.1c-1,1.5-2.1,2.9-3.3,4.3c-2.8,3.5-5.1,7.2-5.7,11.7c5,2.5,10.4,3.8,15.9,3.9
				c3.1,0.1,6.3-0.3,9.3-0.9c-0.2-0.6-0.5-1.2-0.7-1.9c-1-3.3-1.7-6.6-2.1-10c-0.2-1.1-0.2-2.2,0.1-3.2c0.5-2.1,2.1-3.2,4-4
				c2.2-0.8,4.5-1.2,6.8-1.2c1.1,0,2.3-0.1,3.4-0.4c0.9-0.3,1.5-1.3,1.3-2.2c-0.1-0.7-0.3-1.3-0.6-2c-0.4-0.8-0.8-1.7-1-2.6
				c-0.3-1-0.2-2,0.4-2.9c1.6-1.7,4.2-1.8,5.9-0.3c0.2,0.2,0.4,0.4,0.5,0.6s0.3,0.5,0.4,0.7c0.5,0.8,1.5,1.2,2.4,1.1
				c1.8-0.2,3.3-1.5,3.8-3.2c0.4-1.1,0.6-2.3,0.7-3.5c0.2-2.6-0.1-5.1-0.9-7.6c-0.3-0.9-1.1-1.5-2-1.4c-1.9,0-3.5,1.5-3.7,3.4
				c0,0.9-0.2,1.9-0.8,2.6c-0.3,0.5-0.9,0.7-1.5,0.4c-0.4-0.2-0.6-0.7-0.5-1.1c0-0.2,0-0.5,0-0.7c0.1-1-0.2-2-0.9-2.8
				c-1.9-2.3-3.5-5-4.6-7.8c-1.1-2.5-1.5-5.2-1.1-7.9c0.6-3.6,2.4-6.7,4.5-9.6c-4.7-3.5-10.2-5.8-16-6.8
				C61.1,22.1,59.8,21.9,58.5,21.7"/>
			<path id="Tracé_104" class="st4" d="M91,74l-5.8,1.2c-0.5,0.1-0.9,0.3-1.3,0.6c-0.9,0.6-1.2,1.8-0.6,2.7c0,0.1,0.1,0.1,0.1,0.2
				c0.7,1,1.6,1.8,2.6,2.3c0.3,0.2,0.5,0.3,0.8,0.5C88.6,79.1,89.9,76.6,91,74"/>
			<path id="Tracé_105" class="st5" d="M91,74c1.1-2.7,1.9-5.5,2.4-8.3c0.1-1,0.2-2,0.4-3v-6.1c-0.2-0.1-0.1-0.2-0.1-0.4
				c-0.5-5.7-2.3-11.3-5.4-16.2c-2.6-4.3-6-8-10-10.9c-2.1,2.9-4,6-4.5,9.6c-0.4,2.7,0,5.4,1.1,7.9c1.1,2.8,2.7,5.5,4.6,7.8
				c0.7,0.7,1,1.8,0.9,2.8c0,0.2,0,0.5,0,0.7c-0.1,0.6,0.3,1.1,0.9,1.2c0.5,0.1,0.9-0.1,1.1-0.5c0.6-0.8,0.9-1.7,0.8-2.6
				c0.1-1.9,1.7-3.4,3.7-3.4c0.9,0,1.8,0.5,2,1.4c0.8,2.4,1.1,5,0.9,7.6c0,1.2-0.3,2.4-0.7,3.5c-0.5,1.8-2,3-3.8,3.2
				c-1,0.2-1.9-0.2-2.4-1.1c-0.1-0.2-0.3-0.5-0.4-0.7c-1.4-1.9-4-2.3-5.9-0.9c-0.2,0.2-0.4,0.4-0.6,0.6c-0.6,0.9-0.7,1.9-0.4,2.9
				c0.2,0.9,0.6,1.8,1,2.6c0.3,0.6,0.5,1.3,0.6,2c0.2,1-0.4,1.9-1.3,2.2c-1.1,0.3-2.2,0.5-3.4,0.4c-2.3,0-4.6,0.4-6.8,1.2
				c-1.9,0.7-3.5,1.9-4,4c-0.2,1.1-0.2,2.2-0.1,3.2c0.4,3.4,1.1,6.8,2.1,10c0.2,0.6,0.4,1.2,0.7,1.9c4.4-1,8.6-2.8,12.4-5.3
				c3.9-2.6,7.3-5.8,10-9.6c0.1-0.1,0.1-0.2,0.1-0.3c-0.3-0.2-0.6-0.3-0.8-0.5c-1-0.6-1.9-1.4-2.6-2.3s-0.5-2.1,0.4-2.7
				c0.1,0,0.1-0.1,0.2-0.1c0.4-0.3,0.8-0.5,1.3-0.6L91,74"/>
			<path id="Tracé_106" class="st5" d="M18.8,67.5c1.1,5.2,3.3,10.2,6.5,14.5c1.5,2.1,3.2,4,5.1,5.7c2.6,2.4,5.5,4.4,8.7,5.9
				c0.6-4.6,2.9-8.3,5.7-11.7c1.2-1.4,2.3-2.8,3.3-4.3c2.4-3.5,1.9-8.1-1-11.1c-2.4-2.4-5.5-4.1-8.9-4.7c-2.8-0.8-5.8-0.8-8.6-0.2
				c-1.1,0.2-2.2,0.8-3,1.6C24.5,65.6,21.8,67.1,18.8,67.5"/>
			<path id="Tracé_107" class="st5" d="M36.1,27.3c-1.9,1-3.6,2.3-5.1,3.7c-6.7,5.7-11.1,13.6-12.5,22.3c-0.6,3.4-0.7,6.9-0.3,10.3
				c0.9-0.6,1.6-1.5,2-2.6c1-2.1,1.9-4.2,3-6.3c0.5-0.8,1-1.6,1.7-2.3c1.3-1.5,3.4-1.7,5-0.6c1.2,0.8,2.3,1.7,3.3,2.6
				c1.4,1.3,3.1,2.2,4.9,2.8c1.9,0.7,3.9,0.3,5.4-1c2.7-2.5,2-8.2-2.2-9.5c-1.3-0.4-2.7-0.6-4.1-0.7c-1.2-0.1-2.4-0.1-3.5-0.2
				c-1.2,0-2.2-0.7-2.8-1.7c-1.7-2.7-2.3-6-1.5-9.2c0.2-0.9,0.7-1.7,1.6-2.2c0.5-0.4,1.3-0.2,1.6,0.3c0.1,0.2,0.2,0.3,0.2,0.5
				c0.2,1,0.2,2,0,2.9c-0.3,1.6,0.4,3.3,1.8,4.3c1.4,0.9,3.2,0.8,4.5-0.2c0.9-0.6,1.5-1.7,1.5-2.9c0-2.5-0.7-4.9-2-7
				C37.6,29.6,36.9,28.4,36.1,27.3"/>
			<path id="Tracé_108" class="st2" d="M55.8,41.3c-0.9,0-1.7,0-2.5,0c-0.6-0.1-1.1,0.3-1.1,0.9c0,0.1,0,0.1,0,0.2
				c-0.1,0.9,0,1.9,0,2.8c0.1,2,1.9,3.6,4,3.5c1.9-0.1,3.4-1.6,3.5-3.5c0.1-0.9,0.1-1.8,0-2.7c0.1-0.6-0.4-1.1-0.9-1.1
				c-0.1,0-0.1,0-0.2,0C57.6,41.3,56.7,41.3,55.8,41.3"/>
			<path id="Tracé_109" class="st2" d="M70.3,42c0-0.4,0-0.8-0.1-1.2c-0.1-0.7-0.7-1.1-1.3-1.1c-0.7,0-1.3,0.5-1.4,1.2
				c-0.2,0.9-0.2,1.8,0,2.6c0.1,0.8,0.8,1.3,1.6,1.2c0.6-0.1,1.1-0.6,1.2-1.2C70.2,43,70.3,42.5,70.3,42"/>
			<path id="Tracé_110" class="st2" d="M41.5,42.3c0,0.4,0.1,0.9,0.1,1.3c0.1,0.7,0.7,1.2,1.4,1.1c0.7,0,1.2-0.5,1.3-1.2
				c0.2-0.9,0.2-1.8,0-2.6c-0.1-0.7-0.7-1.2-1.4-1.2s-1.3,0.5-1.4,1.2C41.5,41.3,41.5,41.8,41.5,42.3"/>
			<path id="Tracé_111" class="st6" d="M72.3,17.6c0.4,0,0.8-0.2,1-0.5L79.7,9c0.5-0.5,0.4-1.4-0.2-1.8c-0.5-0.5-1.4-0.4-1.8,0.2
				l0,0l-6.4,8.1c-0.4,0.6-0.4,1.4,0.2,1.8C71.7,17.5,72,17.6,72.3,17.6"/>
			<path id="Tracé_112" class="st6" d="M36.4,18.1c0.7,0,1.3-0.6,1.3-1.3c0-0.3-0.1-0.6-0.3-0.8l-6.3-7.9c-0.4-0.6-1.2-0.6-1.8-0.2
				c-0.6,0.4-0.6,1.2-0.2,1.8l6.3,7.9C35.7,17.9,36.1,18.1,36.4,18.1"/>
			<path id="Tracé_113" class="st6" d="M54.4,14.5L54.4,14.5c0.7,0,1.3-0.6,1.3-1.3L55.4,1.3c0-0.7-0.6-1.3-1.3-1.3l0,0
				c-0.7,0-1.3,0.6-1.3,1.3l0.3,11.9C53.2,13.9,53.7,14.5,54.4,14.5"/>
			<path id="Tracé_114" class="st3" d="M103.7,27c0.7,0.5,1.3,1,2,1.5c-0.5,1.5-1,3.3-0.4,4.9c-1.4,0.9-1.7,2.7-1.5,4.3
				c0,0.6,0.3,1.2,0.6,1.6c0.3,0.4,0.7,0.9,1.1,1.3c0.6,0.7,1.4,1.8,2.1,2.5c0.4,0.5,0.9,1.1,1.4,1.5c0.9,0.6,1.9,0.8,2.9,0.9
				c1.9-0.1,3.5-1.3,4-3.1c0.6,0.3,1.3,0.5,1.9,0.5c2.6,0.3,4.7-1.4,6.3-3.3c0.6-0.8,1.2-1.5,1.9-2.1c0,0,0,0,0.1,0c0,0,0,0,0.1,0
				c0.4,0,0.8,0,1.1,0c1.5,0.2,3,0.5,4.4,0.8c0.3,0.1,0.6,0.1,0.9,0.2c0.5,0,1.1-0.1,1.6-0.4c1.9-0.9,2.7-3.2,1.7-5.1
				c-0.2-0.4-0.5-0.8-0.9-1.2c0.2-0.1,0.4-0.2,0.6-0.4c0.8-0.5,1.4-1.3,1.7-2.3c0-0.1,0-0.3,0-0.3c0-0.1,0-0.2,0-0.3
				c0-0.3-0.1-0.6-0.2-0.9c-0.2-0.5-0.4-1-0.8-1.5c-0.2-0.2-0.3-0.4-0.5-0.5l-0.3-0.2l-0.3-0.2c-0.5-0.3-1.1-0.6-1.7-0.8
				c0-0.1,0-0.2-0.1-0.2c-0.8-3.5-5.4-3.8-8.3-3.5c-2.2,0.2-7,1.1-8.6,3.1c-0.4-0.1-0.9-0.1-1.3-0.1c-1.5,0-3,0.1-4.4,0.5
				c-0.9-1.5-2.1-2.8-3.6-3.8c-1.6-1-3.8-1.7-5.6-0.6C98.5,22,101.5,25.3,103.7,27"/>
			<path id="Tracé_115" class="st2" d="M101.8,19.8c1.7-1.1,4-0.5,5.6,0.6c1.5,1,2.7,2.3,3.6,3.8c1.4-0.3,2.9-0.5,4.4-0.5
				c0.4,0,0.9,0.1,1.3,0.1c1.6-1.9,6.4-2.9,8.6-3.1c3-0.2,7.5,0,8.3,3.5c0,0.1,0,0.2,0.1,0.2c0.6,0.2,1.2,0.5,1.7,0.8l0.3,0.2
				l0.3,0.2c0.2,0.2,0.3,0.3,0.5,0.5c0.3,0.4,0.6,0.9,0.8,1.5c0.1,0.3,0.1,0.6,0.2,0.9c0,0.1,0,0.2,0,0.3c0,0.1,0,0.3,0,0.3
				c-0.2,1-0.8,1.8-1.7,2.3c-0.2,0.1-0.4,0.3-0.6,0.4c1.5,1.4,1.7,3.8,0.3,5.3c-0.3,0.4-0.7,0.7-1.2,0.9s-1,0.4-1.6,0.4
				c-0.3,0-0.6-0.1-0.9-0.2c-1.5-0.3-3-0.6-4.4-0.8c-0.4-0.1-0.8-0.1-1.1,0c0,0,0,0-0.1,0c0,0,0,0-0.1,0c-0.7,0.7-1.3,1.4-1.9,2.1
				c-1.5,1.9-3.7,3.6-6.3,3.3c-0.7-0.1-1.3-0.3-1.9-0.5c-0.5,1.8-2.1,3-4,3.1h-0.1c-0.1,0-0.2,0-0.3,0c-0.1,0-0.2,0-0.3,0
				c-0.1,0-0.1,0-0.2,0s-0.2,0-0.3-0.1c-0.1,0-0.2-0.1-0.3-0.1l0,0l0,0c-0.1,0-0.2-0.1-0.3-0.1c-0.1,0-0.2-0.1-0.3-0.1
				c-0.1,0-0.1-0.1-0.2-0.1s-0.1-0.1-0.2-0.1s-0.2-0.1-0.3-0.1l0,0c0,0-0.1,0-0.1-0.1c-0.5-0.5-1-1-1.4-1.5
				c-0.6-0.7-1.5-1.8-2.1-2.5c-0.4-0.4-0.7-0.9-1.1-1.3c0-0.1-0.1-0.1-0.1-0.2c0-0.1-0.1-0.1-0.1-0.2c0-0.1-0.1-0.1-0.1-0.2
				c-0.1-0.2-0.2-0.3-0.2-0.5l0,0l0,0c0-0.1,0-0.1-0.1-0.2l0,0c0-0.1,0-0.2,0-0.3c-0.2-1.6,0.1-3.5,1.5-4.3
				c-0.7-1.5-0.1-3.3,0.4-4.9c-0.7-0.5-1.4-0.9-2-1.5C101.5,25.3,98.5,22,101.8,19.8 M104.6,37.6c0,0.2,0.1,0.5,0.2,0.7
				c0,0,0,0,0,0.1c0.1,0.3,0.2,0.7,0.4,1c0.1,0.1,0.1,0.2,0.2,0.3c0.5,0.6,1,1.2,1.6,1.9c0.8,0.9,1.5,1.8,2.4,2.6
				c0.1,0.1,0.2,0.1,0.3,0.2c0.2,0.1,0.5,0.2,0.7,0.3c1.5,0.5,3.1,0.1,4.1-1c1.2-1.1,1.6-2.7,1.1-4.2c-0.2-0.5-0.4-1-0.7-1.4
				c-0.9-1.6-2.1-2.9-3.6-3.9s-3.3-1.1-5-0.4C104.4,34.5,104.4,36.1,104.6,37.6 M104.2,26.4c0.7,0.6,1.5,1.2,2.3,1.8
				c-0.3,0.8-0.6,1.7-0.7,2.6c-0.2,0.8-0.1,1.5,0.1,2.3c1.9-0.7,4-0.5,5.7,0.6c0.1,0.1,0.2,0.1,0.3,0.2c1.2-2.6,4-3.3,6.6-4
				c-2.4,0.8-5.2,1.7-6.1,4.3c1.2,1,2.2,2.2,3,3.5c0.9,1.2,1.1,2.7,0.8,4.2c0.6,0.2,1.3,0.3,2,0.3c2.2,0,4-1.5,5.4-3.1
				c0.6-0.8,1.3-1.5,2-2.2c0.6-0.3,1.3-0.4,2-0.2c1.5,0.2,3,0.5,4.5,0.8c1.3,0.4,2.7-0.3,3.3-1.6c0.5-1.3,0.1-2.7-1-3.5
				c-2.2-1.8-5.6-2.1-8.4-2c2.3-0.6,6.1-0.6,8.5,0.8v-0.1l0,0c0.9-0.4,2.2-1.2,2.1-2.2c0-0.1,0-0.3,0-0.4
				c-0.8-4.8-10.6-4.2-13.6-1.8c1.3-1.2,3-2,4.7-2.2c1.7-0.4,3.4-0.4,5.1-0.2c-0.8-2.7-4.9-2.7-7.2-2.5c-2.1,0.2-6.8,1.1-8,2.8
				L117,25l-0.3-0.2c-1.7-0.9-4.1-0.3-5.8,0.3l-0.4,0.1l-0.1-0.4c-1.1-2.7-5-5.9-8-4.2c-0.7,0.3-1.1,1-1.1,1.7
				C101.5,24,103,25.3,104.2,26.4"/>
			<path id="Tracé_116" class="st2" d="M91.6,49.4c0.9,3,1.3,6.1,1.4,9.2c2.5-3.5,10.1-9.6,16-13.9l0,0c0.2-0.1,0.4-0.3,0.5-0.4
				c0.5-0.4,1-0.7,1.5-1c0.9-3.2-2.4-6.2-3.7-6.4c-0.9,0.4-1.8,0.9-2.6,1.4c-0.2,0.1-0.4,0.3-0.7,0.4C99.7,42,95.5,45.6,91.6,49.4"
				/>
			<path id="Tracé_117" class="st2" d="M10.4,79c0.2,0,0.3,0.1,0.4,0.1H11c0.5,0.1,0.9,0.1,1.3,0.2c1.1,0.2,2.2,0,3.3-0.5
				c0.4-0.3,1.8-6-0.6-6.3c-0.9-0.1-1.8-0.3-2.6-0.5c-0.5-0.1-0.9-0.2-1.3-0.4c-7-2.4,2.1-7.2,8.3-5.5c-0.4-2.1-0.6-4.3-0.6-6.4
				v-0.1c-0.7-0.1-1.4-0.2-2-0.2c-8.3-0.7-15,2.5-15.9,8.4C-0.2,74.7,7.3,78.2,10.4,79"/>
			<path id="Tracé_118" class="st3" d="M26.3,68.8c-1.3,0.7-2.7,1-4.2,0.9C23.1,68.5,24.8,68.2,26.3,68.8 M27.6,72.7
				c-0.6,0.3-1.3,0.5-1.9,0.7c-0.7,0.2-1.4,0.2-2.1,0C24.1,72.2,26.6,71.9,27.6,72.7 M27.6,77.9c-1.3,0.1-2.5-0.2-3.6-0.8
				C25.3,76.6,26.7,76.9,27.6,77.9 M26.3,68.8c-1.3,0.7-2.7,1-4.2,0.9C23.2,68.5,24.8,68.2,26.3,68.8 M27.6,72.7
				c-0.6,0.3-1.3,0.5-1.9,0.7c-0.7,0.2-1.4,0.2-2.1,0C24.1,72.2,26.6,71.9,27.6,72.7 M27.6,77.9c-1.3,0.1-2.5-0.2-3.6-0.8
				C25.3,76.6,26.7,76.9,27.6,77.9 M27.6,77.9c-1.3,0.1-2.5-0.2-3.6-0.8C25.3,76.6,26.7,76.9,27.6,77.9 M27.6,72.7
				c-0.6,0.3-1.3,0.5-1.9,0.7c-0.7,0.2-1.4,0.2-2.1,0C24.1,72.2,26.6,71.9,27.6,72.7 M26.3,68.8c-1.3,0.7-2.7,1-4.2,0.9
				C23.2,68.5,24.8,68.2,26.3,68.8 M26.3,68.8c-1.3,0.7-2.7,1-4.2,0.9C23.2,68.5,24.8,68.2,26.3,68.8 M27.6,72.7
				c-0.6,0.3-1.3,0.5-1.9,0.7c-0.7,0.2-1.4,0.2-2.1,0C24.1,72.2,26.6,71.9,27.6,72.7 M27.6,77.9c-1.3,0.1-2.5-0.2-3.6-0.8
				C25.3,76.6,26.7,76.9,27.6,77.9 M15.6,78.8c0.4-0.3,1.8-6-0.6-6.3c-0.9-0.1-1.8-0.3-2.6-0.5c-0.5-0.1-0.9-0.2-1.3-0.4
				c0.6-0.3,1.1-0.7,1.5-1.1c0.5-0.4,1-0.7,1.6-1c0.8-0.3,1.7-0.5,2.5-0.3c0.1-0.1,0.1-0.2,0.2-0.2c0.8-0.9,1.6-1.8,2.5-2.6l0.1-0.1
				c0.5-0.4,1-0.8,1.6-1.2c0.2-0.1,0.4-0.2,0.6-0.3c0.4-0.2,0.7-0.3,1.1-0.3c0.3,0,0.8,0,1.1,0c0.2,0,0.5,0,0.7,0.1
				c0.5,0,1,0.1,1.4,0.2c5.9,0.9,9.9,6.5,9,12.4c0,0.3-0.1,0.5-0.2,0.8c-0.7,3.2-2.8,5.9-5.8,7.3l-0.2,0.1C27.9,85.8,27,86,26,86
				c-1.8,0.1-3.4-1.1-3.8-2.9c-0.7,0-1.3-0.1-2-0.2c-0.9-0.2-1.8-0.7-2.5-1.3c-0.7,0.3-1.4,0.5-2.1,0.5c-1.9,0.1-4.3-0.8-4.8-2.9
				l1.3,0.2C13.5,79.4,14.6,79.3,15.6,78.8 M19.6,81.1c2,1.1,4.3,1.3,6.4,0.6h0.1c0.9-0.2,1.8-0.6,2.7-1l0,0
				c-0.2,0.1-0.7,0.5-0.9,0.6c-0.5,0.3-1,0.6-1.6,0.8c-1.1,0.5-2.2,0.7-3.3,0.8c0.3,0.7,0.9,1.3,1.7,1.6c1.1,0.4,2.3,0.3,3.3-0.2
				h0.1c0.2-0.1,0.5-0.3,0.8-0.4c2.4-1.4,4-3.7,4.5-6.4c0.8-3.8-0.6-7.7-3.7-10c-1.9-1.4-4.2-2.1-6.5-2.2c-1.2-0.1-2.5,0.9-3.6,2
				c-0.7,0.7-1.3,1.4-1.9,2.2c2.4,1.1,4,3.6,4,6.3c0,2-1,3.8-2.5,5C19.2,80.9,19.4,81,19.6,81.1 M26.3,68.8c-1.3,0.7-2.7,1-4.2,0.9
				C23.2,68.5,24.8,68.2,26.3,68.8 M27.6,72.7c-0.6,0.3-1.3,0.5-1.9,0.7c-0.7,0.2-1.4,0.2-2.1,0C24.1,72.2,26.6,71.9,27.6,72.7
				 M27.6,77.9c-1.3,0.1-2.5-0.2-3.6-0.8C25.3,76.6,26.7,76.9,27.6,77.9 M27.6,77.9c-1.3,0.1-2.5-0.2-3.6-0.8
				C25.3,76.6,26.7,76.9,27.6,77.9 M27.6,72.7c-0.6,0.3-1.3,0.5-1.9,0.7c-0.7,0.2-1.4,0.2-2.1,0C24.1,72.2,26.6,71.9,27.6,72.7
				 M26.3,68.8c-1.3,0.7-2.7,1-4.2,0.9C23.2,68.5,24.8,68.2,26.3,68.8 M26.3,68.8c-1.3,0.7-2.7,1-4.2,0.9
				C23.2,68.5,24.8,68.2,26.3,68.8 M27.6,72.7c-0.6,0.3-1.3,0.5-1.9,0.7c-0.7,0.2-1.4,0.2-2.1,0C24.1,72.2,26.6,71.9,27.6,72.7
				 M27.6,77.9c-1.3,0.1-2.5-0.2-3.6-0.8C25.3,76.6,26.7,76.9,27.6,77.9"/>
			<path id="Tracé_119" class="st2" d="M26.3,68.8c-1.3,0.7-2.7,1-4.2,0.9C23.1,68.5,24.8,68.2,26.3,68.8 M27.6,72.7
				c-0.6,0.3-1.3,0.5-1.9,0.7c-0.7,0.2-1.4,0.2-2.1,0C24.1,72.2,26.6,71.9,27.6,72.7 M27.6,77.9c-1.3,0.1-2.5-0.2-3.6-0.8
				C25.3,76.6,26.7,76.9,27.6,77.9 M26.3,68.8c-1.3,0.7-2.7,1-4.2,0.9C23.2,68.5,24.8,68.2,26.3,68.8 M27.6,72.7
				c-0.6,0.3-1.3,0.5-1.9,0.7c-0.7,0.2-1.4,0.2-2.1,0C24.1,72.2,26.6,71.9,27.6,72.7 M27.6,77.9c-1.3,0.1-2.5-0.2-3.6-0.8
				C25.3,76.6,26.7,76.9,27.6,77.9 M26.3,68.8c-1.3,0.7-2.7,1-4.2,0.9C23.2,68.5,24.8,68.2,26.3,68.8 M27.6,72.7
				c-0.6,0.3-1.3,0.5-1.9,0.7c-0.7,0.2-1.4,0.2-2.1,0C24.1,72.2,26.6,71.9,27.6,72.7 M27.6,77.9c-1.3,0.1-2.5-0.2-3.6-0.8
				C25.3,76.6,26.7,76.9,27.6,77.9 M27.6,77.9c-1.3,0.1-2.5-0.2-3.6-0.8C25.3,76.6,26.7,76.9,27.6,77.9 M27.6,72.7
				c-0.6,0.3-1.3,0.5-1.9,0.7c-0.7,0.2-1.4,0.2-2.1,0C24.1,72.2,26.6,71.9,27.6,72.7 M26.3,68.8c-1.3,0.7-2.7,1-4.2,0.9
				C23.2,68.5,24.8,68.2,26.3,68.8 M26.3,68.8c-1.3,0.7-2.7,1-4.2,0.9C23.2,68.5,24.8,68.2,26.3,68.8 M27.6,72.7
				c-0.6,0.3-1.3,0.5-1.9,0.7c-0.7,0.2-1.4,0.2-2.1,0C24.1,72.2,26.6,71.9,27.6,72.7 M27.6,77.9c-1.3,0.1-2.5-0.2-3.6-0.8
				C25.3,76.6,26.7,76.9,27.6,77.9 M14.2,80.9c3.3,1.2,6.7-1.8,6.6-5.2c0-3.1-3.1-6.5-6.3-5.4c-0.9,0.3-1.6,0.9-2.1,1.7
				c-0.5-0.1-0.9-0.2-1.3-0.4c0.6-0.3,1.1-0.7,1.5-1.1c0.5-0.4,1-0.7,1.6-1c0.8-0.3,1.7-0.5,2.5-0.3c0.1-0.1,0.1-0.2,0.2-0.2
				c0.8-0.9,1.6-1.8,2.5-2.6l0.1-0.1c0.5-0.4,1-0.8,1.6-1.2c0.2-0.1,0.4-0.2,0.6-0.3c0.4-0.2,0.7-0.3,1.1-0.3c0.3,0,0.8,0,1.1,0
				c0.2,0,0.5,0,0.7,0.1c0.5,0,1,0.1,1.4,0.2c5.9,0.9,9.9,6.5,9,12.4c0,0.3-0.1,0.5-0.2,0.8c-0.7,3.2-2.8,5.9-5.8,7.3l-0.2,0.1
				C27.9,85.8,27,86,26,86c-1.8,0.1-3.4-1.1-3.8-2.9c-0.7,0-1.3-0.1-2-0.2c-0.9-0.2-1.8-0.7-2.5-1.3c-0.7,0.3-1.4,0.5-2.1,0.5
				c-1.9,0.1-4.3-0.8-4.8-2.9l1.3,0.2C12.4,80,13.6,80.7,14.2,80.9 M19.6,81.1c2,1.1,4.3,1.3,6.4,0.6h0.1c0.9-0.2,1.8-0.6,2.7-1l0,0
				c-0.2,0.1-0.7,0.5-0.9,0.6c-0.5,0.3-1,0.6-1.6,0.8C25.2,82.7,24.1,83,23,83c0.3,0.7,0.9,1.3,1.7,1.6c1.1,0.4,2.3,0.3,3.3-0.2h0.1
				c0.2-0.1,0.5-0.3,0.8-0.4c2.4-1.4,4-3.7,4.5-6.4c0.8-3.8-0.6-7.7-3.7-10c-1.9-1.4-4.2-2.1-6.5-2.2c-1.2-0.1-2.5,0.9-3.6,2
				c-0.7,0.7-1.3,1.4-1.9,2.2c2.4,1.1,4,3.6,4,6.3c0,2-1,3.8-2.5,5C19.2,80.9,19.4,81,19.6,81.1 M26.3,68.8c-1.3,0.7-2.7,1-4.2,0.9
				C23.1,68.5,24.8,68.2,26.3,68.8 M27.6,72.7c-0.6,0.3-1.3,0.5-1.9,0.7c-0.7,0.2-1.4,0.2-2.1,0C24.1,72.2,26.6,71.9,27.6,72.7
				 M27.6,77.9c-1.3,0.1-2.5-0.2-3.6-0.8C25.3,76.6,26.7,76.9,27.6,77.9 M27.6,77.9c-1.3,0.1-2.5-0.2-3.6-0.8
				C25.3,76.6,26.7,76.9,27.6,77.9 M27.6,72.7c-0.6,0.3-1.3,0.5-1.9,0.7c-0.7,0.2-1.4,0.2-2.1,0C24.1,72.2,26.6,71.9,27.6,72.7
				 M26.3,68.8c-1.3,0.7-2.7,1-4.2,0.9C23.1,68.5,24.8,68.2,26.3,68.8 M26.3,68.8c-1.3,0.7-2.7,1-4.2,0.9
				C23.1,68.5,24.8,68.2,26.3,68.8 M27.6,72.7c-0.6,0.3-1.3,0.5-1.9,0.7c-0.7,0.2-1.4,0.2-2.1,0C24.1,72.2,26.6,71.9,27.6,72.7
				 M27.6,77.9c-1.3,0.1-2.5-0.2-3.6-0.8C25.3,76.6,26.7,76.9,27.6,77.9"/>
			<path id="Tracé_120" class="st3" d="M21.6,75.7c0-2.7-1.6-5.1-4-6.3c0.6-0.8,1.2-1.5,1.9-2.2c1.1-1.1,2.4-2.1,3.6-2
				c2.3,0.1,4.6,0.9,6.5,2.2c3,2.4,4.5,6.3,3.7,10c-0.5,2.7-2.2,5-4.5,6.4c-0.2,0.1-0.5,0.3-0.8,0.4h-0.1c-1,0.5-2.2,0.6-3.3,0.2
				c-0.8-0.3-1.4-0.8-1.7-1.6c1.1-0.1,2.3-0.4,3.3-0.8c0.6-0.2,1.1-0.5,1.6-0.8c0.2-0.1,0.7-0.5,0.9-0.6l0,0c-0.9,0.4-1.7,0.7-2.7,1
				h-0.1c-2.1,0.6-4.4,0.4-6.4-0.6c-0.2-0.1-0.3-0.2-0.5-0.4C20.7,79.6,21.6,77.7,21.6,75.7 M22.1,69.7c1.4,0.1,2.9-0.2,4.2-0.9
				C24.8,68.1,23.2,68.5,22.1,69.7 M23.5,73.4c0.7,0.2,1.4,0.2,2.1,0s1.3-0.4,1.9-0.7C26.6,71.9,24.1,72.2,23.5,73.4 M27.6,77.9
				c-0.9-1-2.4-1.3-3.6-0.8C25.1,77.7,26.4,78,27.6,77.9"/>
			<path id="Tracé_121" class="st2" d="M22.1,69.7c1.4,0.1,2.9-0.2,4.2-0.9C24.8,68.2,23.2,68.5,22.1,69.7"/>
			<path id="Tracé_122" class="st2" d="M23.5,73.5c0.7,0.2,1.4,0.2,2.1,0s1.3-0.4,1.9-0.7C26.6,71.9,24.1,72.2,23.5,73.5"/>
			<path id="Tracé_123" class="st2" d="M24,77.1c1.1,0.7,2.4,1,3.6,0.8C26.7,76.9,25.3,76.6,24,77.1"/>
		</g>
	</g>
</g>
</svg>
